<?xml version="1.0" standalone="no"?>
<!DOCTYPE svg PUBLIC "-//W3C//DTD SVG 1.1//EN" "http://www.w3.org/Graphics/SVG/1.1/DTD/svg11.dtd" >
<svg xmlns="http://www.w3.org/2000/svg">
  <metadata>Created by iconfont</metadata>
  <defs>
  <font id="iconfont" horiz-adv-x="1024">
    <font-face
      font-family="iconfont"
      font-weight="400"
      font-stretch="normal"
      units-per-em="1024"
      ascent="896"
      descent="-128"
    />
      <missing-glyph />
      
      <glyph glyph-name="chart-bar" unicode="&#57348;" d="M1061.888-46.08000000000004a40.96 40.96 0 0 0 0-81.92H40.96A40.96 40.96 0 0 0 0-87.03999999999996V855.04A40.96 40.96 0 0 0 40.881231 896a40.96 40.96 0 0 0 40.802461-40.96v-901.12h980.204308zM606.523077 801.634462h123.667692v-768H606.523077v768z m220.553846-410.151385h123.667692v-357.612308H827.076923v357.612308zM385.969231 545.2406149999999h123.667692v-511.763692H385.969231V545.2406149999999zM176.758154 288.92553799999996h123.667692v-256.787692h-123.667692v256.787692z"  horiz-adv-x="1102" />
      
      <glyph glyph-name="chart-pie" unicode="&#57347;" d="M438.857143 387.428571l312-312q-60.571429-61.714286-141.428572-96T438.857143-54.85714299999995q-119.428571 0-220.285714 58.857143T58.857143 163.71428600000002 0 384t58.857143 220.285714T218.571429 764 438.857143 822.857143v-435.428572z m106.857143-3.428571h441.714285q0-89.714286-34.285714-170.571429T857.142857 72z m405.142857 73.142857H512V896q119.428571 0 220.285714-58.857143T892 677.428571 950.857143 457.142857z"  horiz-adv-x="1024" />
      
      <glyph glyph-name="assets" unicode="&#57346;" d="M947.40910913 397.92187506l-7.5937503-10.96875011c-27.42187527-42.18750003-114.32812543-75.93750006-232.87499941-95.34375017h-7.59375029v-81.00000025h10.1250004c158.62499974 25.31250002 256.92187486 78.89062502 256.92187485 139.21875059a64.96874995 64.96874995 0 0 1-12.23437563 36.70312498zM947.40910913 554.0156247l-7.5937503-10.9687501c-27.42187527-42.18750003-114.32812543-75.93750006-232.87499941-95.34374921h-7.59375029v-81.00000026h10.54687525c158.62499974 25.31250002 256.92187486 78.89062502 256.92187486 139.21874963A64.96874995 64.96874995 0 0 1 954.5809836 542.62499974zM312.90910921 367.12499998h10.54687525v79.31249987h-7.59375029C197.73723407 465.42187511 110.83098391 501.28125038 82.98723379 541.78125002l-7.17187447 12.23437468-7.5937503-10.9687501a64.96874995 64.96874995 0 0 1-12.23437467-36.70312499c0-60.32812461 98.29687512-113.48437475 256.92187486-139.21874963zM312.90910921 211.45312520000004h10.54687525v79.31249987h-7.59375029c-118.12500009 18.98437526-205.03125026 54.84374956-232.87500038 95.34375017l-7.17187447 11.81249982-7.5937503-12.6562505a64.96874995 64.96874995 0 0 1-12.23437467-36.70312497c0-58.6406252 98.29687512-111.79687533 256.92187486-137.10937439zM947.40910913 89.95312530000001l-7.5937503-10.96875011c-42.18750003-63.70312539-223.17187484-110.10937494-428.20312509-110.10937493S126.44035936 15.281249799999955 82.98723379 78.98437519000004l-7.17187447 10.96875011-7.5937503-10.96875011a64.96874995 64.96874995 0 0 1-12.23437467-36.70312497c0-86.48437531 199.96875006-154.40625022 455.62499939-154.40625022s455.62500036 67.92187491 455.62500036 154.40625022a64.96874995 64.96874995 0 0 1-12.23437468 36.70312497zM306.538602 46.14966000000004h10.884354v81.85034h-7.836735c-121.904762 19.591837-211.591837 56.598639-240.326531 98.394558l-7.40136 12.190476-7.836735-11.319728a67.047619 67.047619 0 0 1-12.62585-37.877551c0-61.823129 101.442177-117.115646 265.142857-143.238095zM961.341323 238.58503399999995l-7.836735-11.319728c-28.29932-43.537415-117.986395-78.367347-240.32653-98.394558h-7.836735v-83.591836h10.884354c163.70068 26.122449 265.142857 81.414966 265.142857 143.673469a67.047619 67.047619 0 0 1-12.625851 37.877551zM64.84660921 700.82812462a446.76562452 179.29687538000002 0 1 1 893.53125002 0 446.76562452 179.29687538000002 0 1 1-893.53125002 0ZM490.94035906 27.93750030000001a109.26562523 109.26562523 0 0 1 24.04687546-2.95312495 102.51562464 102.51562464 0 0 1 23.62499963 2.95312495h3.37499981v52.31249947a132.89062486 132.89062486 0 0 1 69.60937529 34.5937507 89.85937512 89.85937512 0 0 1 25.73437488 64.96874995 96.18749988 96.18749988 0 0 1-6.74999962 37.96874955 74.24999967 74.24999967 0 0 1-18.56250041 26.15624973 111.37500048 111.37500048 0 0 1-28.68749982 17.71875069c-10.96875011 4.64062534-23.20312477 9.70312457-36.28125013 14.34374991l-31.64062478 10.9687501-15.60937544 5.90624992a69.18750044 69.18750044 0 0 0-13.07812535 6.74999962 27.84375012 27.84375012 0 0 0-8.43750001 8.85937486 24.89062516 24.89062516 0 0 0-2.95312496 12.65625049 23.20312477 23.20312477 0 0 0 3.79687563 13.92187506 27.42187527 27.42187527 0 0 0 10.12499944 8.01562418 47.25000023 47.25000023 0 0 0 15.18750059 4.21875049 201.23437463 201.23437463 0 0 0 42.18750003 0l20.24999982-2.95312496 16.87500002-4.21875048 16.0312503-5.48437505h3.3749998v3.37500077a146.81249992 146.81249992 0 0 1 21.09374954 52.73437432v3.79687563h-3.79687467c-14.76562477 4.21874952-28.26562498 7.5937503-42.18750003 10.12499943a312.18750024 312.18750024 0 0 1-38.39062536 5.90624991v45.56250081h-3.37499982a104.20312503 104.20312503 0 0 1-47.67187508 0h-3.37499981v-46.82812538a132.46875001 132.46875001 0 0 1-72.1406254-28.68749982 84.37500006 84.37500006 0 0 1-28.26562497-66.65625035 84.37500006 84.37500006 0 0 1 5.90625088-33.32812517 70.87499986 70.87499986 0 0 1 16.87499904-24.04687448 102.51562464 102.51562464 0 0 1 25.31250002-17.29687488 320.2031254 320.2031254 0 0 1 31.64062575-13.5000002l27.84375012-10.1250004 18.56249944-6.74999961a84.37500006 84.37500006 0 0 0 16.0312503-7.17187544 36.28125012 36.28125012 0 0 0 11.39062495-10.12499944 24.46875031 24.46875031 0 0 0 4.21874953-14.76562476 28.26562498 28.26562498 0 0 0-15.60937448-27.00000041 107.15624998 107.15624998 0 0 0-48.93750062-9.28124972 277.17187468 277.17187468 0 0 0-42.18749907 2.95312496 234.98437465 234.98437465 0 0 0-42.18750003 10.12499942h-3.79687563v-3.79687466c-3.79687467-9.70312457-7.17187544-18.98437526-10.12499943-27.84375012a147.23437477 147.23437477 0 0 1-5.90624991-27.00000041v-3.37499981h3.37499982l25.31250001-7.59374932c8.01562515-2.10937524 16.45312516-3.79687467 24.89062516-5.06250021s16.87500002-2.5312501 26.15624974-2.95312495h30.79687507v-46.40625052z"  horiz-adv-x="1024" />
      
      <glyph glyph-name="eraser" unicode="&#57345;" d="M542.88960035 769.43680035a67.2 67.2 0 0 0 95.0208 0l315.52639965-315.5264007a67.2 67.2 0 0 0 0-95.0208L653.70240035 59.155200000000036 960.00000035 59.20000034999998v-89.6000007H308.4512a67.2 67.2 0 0 0-47.48800035 19.6896l-201.6 201.6a67.2 67.2 0 0 0 0 95.0208L542.88960035 769.43680035z m-15.8592-710.304l33.62239965 33.6447993L276.8 376.65280035 138.54720035 238.39999965000004l179.1999993-179.1999993 209.2832007-0.0672zM340.14720035 439.99999965L624.00000035 156.14719964999995 874.25280035 406.39999965 590.40000035 690.25279965 340.14720035 439.99999965z"  horiz-adv-x="1024" />
      
      <glyph glyph-name="404" unicode="&#58908;" d="M300.197 299.70500000000004l4.428 1.804c1.148-2.788 10.168-7.544 26.896-14.268l5.412-12.956c10.66-24.928 23.124-62.483 37.555-112.666 14.432 5.576 34.439 0.984 60.351-13.612l1.804-4.428-47.067-35.751 18.204-42.639c2.46-5.576-12.464-15.58-44.771-29.848-11.152 7.216-19.844 9.676-26.404 7.052l-0.984 2.132c-10.824 25.42-16.236 42.311-16.4 50.675l-4.428-1.804 6.396-14.924-11.152-4.264c-41.655-16.236-71.831-18.696-90.691-7.872l-4.428-1.804-1.804 4.264c-7.052 16.728 3.608 77.407 32.307 182.037 11.48 4.428 19.188 14.924 22.96 31.324 12.956 8.528 23.452 14.268 31.816 17.548z m-83.966-219.428c28.372 19.516 40.999 32.799 38.047 39.687-0.984 2.132-0.656 5.576 0.656 10.168l-0.984 2.132c-25.584-21.484-38.047-32.963-37.391-34.439-1.312-9.02-1.476-14.76-0.328-17.548z m0.492-7.38l0.984-2.132c11.644 1.148 21.156 3.28 28.7 6.232 0.82 0.328 7.38 5.412 19.844 15.252l-0.984 2.132c-7.544-2.952-12.792-0.984-15.744 6.068-23.124-15.416-33.947-24.6-32.799-27.552z m9.183 70.847l11.152 4.264c-1.148-2.624-6.396-8.692-15.58-18.532-2.296-10.824-2.788-17.548-1.64-20.336 27.716 20.664 40.343 33.783 37.883 39.523l0.82 10.332-3.444-3.936-9.02-3.444-0.984 2.132c11.152 4.264 17.876 16.892 20.5 37.719l-0.984 2.132c-25.256-21.156-37.391-33.291-36.735-36.571l-1.968-13.284z m5.74 29.683l0.984-2.132 2.132 0.82c28.372 23.124 40.179 40.179 35.423 51.331 1.476 0.656 1.968 1.64 1.476 2.952l-2.296-0.82c-28.864-21.648-40.999-38.047-36.407-49.035-1.476-0.82-1.968-1.804-1.312-3.116z m9.348 38.54l0.984-2.132c13.776 10.332 35.915 29.848 66.419 58.219l2.132 0.82-6.396 14.924 0.492 5.084-2.296-0.82c-36.571-32.963-55.431-51.823-56.579-56.743l-4.756-19.352z m70.683-104.631l-35.751-13.94c-1.476-0.492-6.888-4.264-16.236-11.316l0.82-1.968 12.3 2.132 20.008 7.872c11.644 4.592 32.143 19.844 61.171 46.083l-6.396 14.924-2.132-0.82c-24.108-16.892-34.439-29.192-31.16-36.899 1.148-2.788 0.328-4.92-2.624-6.068zM267.89 264.774l0.82-1.968c17.876 16.892 27.388 25.42 28.208 25.748l-0.984 2.132-8.856-3.444c-12.136-4.756-18.532-12.3-19.188-22.468z m7.708-41.819c16.072-37.883 20.008-67.895 11.972-90.035l-3.444-28.864 26.896 10.496c-7.544 30.012-18.368 65.599-32.471 106.926l-0.984 2.132-1.968-0.656z m3.772 8.855l6.396-14.924c13.448 15.088 24.436 24.272 32.635 27.552l-3.608 8.528-2.46 11.644-2.132-0.82c-21.156-16.728-31.488-27.224-30.832-31.98z m13.447-37.227c23.944 17.22 33.619 30.996 29.192 41.491l-2.788 6.396-2.296-0.82c-21.484-18.86-30.668-31.652-27.88-38.375l3.772-8.692z m1.64-4.1l2.788-6.396 2.296-11.808 2.296 0.82-0.492-5.084 6.396-14.924 32.471 27.388-6.396 15.088c-9.348-10.332-16.236-16.4-20.828-18.204l-2.296-0.984c-0.656 1.64 6.068 10.168 20.336 25.42l-3.116 13.612-0.984 2.132-32.471-27.06z m12.956-42.311l2.788-6.396 2.296-11.644c23.944 17.22 35.259 27.388 33.947 30.504l-5.412 12.956c-11.808-7.872-22.96-16.4-33.619-25.42z m48.379-16.236c-23.78-17.712-34.111-30.012-30.996-37.227l1.476-9.348c25.256 18.04 36.899 29.356 34.931 33.783 24.436 21.156 38.703 32.471 42.803 33.947l-0.82 1.968c-1.804 2.788-6.724 4.1-14.596 4.428l-30.832-31.98-1.968 4.428z m-27.879-50.675l4.592-10.66-0.492-5.084 2.296 0.82c23.452 14.596 34.275 23.616 32.635 27.552l-5.412 12.956-33.619-25.584z m5.904-20.008l5.412-12.792c25.748 13.284 37.719 22.14 35.915 26.404l-4.592 10.66c-22.14-15.252-34.439-23.288-36.735-24.272z m23.779 78.719l1.804-4.1c4.92 1.968 8.528 9.84 10.824 23.944l-2.296-0.82c-3.28-11.316-6.724-17.548-10.332-19.024z m374.079 116.11l3.936-0.164c-0.164-2.46 4.756-9.02 14.76-19.516l-0.656-11.316c-1.148-21.976-5.412-53.955-12.956-95.775 12.628-0.656 25.912-10.66 39.687-30.176l-0.164-3.936-47.887-10.824-1.968-37.719c-0.328-4.92-14.924-7.38-43.951-7.38-5.576 9.02-11.152 13.776-16.892 13.94l0.164 1.968c1.148 22.468 3.28 36.735 6.232 42.967l-3.936 0.164-0.656-13.12-9.84 0.492c-36.571 1.804-60.023 9.84-70.027 24.272l-3.936 0.164 0.164 3.772c0.82 14.76 30.668 56.087 89.707 124.146 10.168-0.492 19.516 4.756 28.372 15.58 12.464 2.132 22.468 2.952 29.848 2.46zM587.849 115.86400000000003l-0.164-1.968c9.02-2.952 16.892-4.592 23.616-4.92 0.656 0 7.38 1.476 20.172 4.756l0.164 1.968c-6.724 0.328-9.84 3.608-9.512 9.676-22.796-3.772-34.111-7.052-34.275-9.512z m2.296 5.576c28.044 5.084 42.147 10.66 42.475 16.728 0.164 1.804 1.476 4.264 4.1 7.216l0.164 1.968c-26.732-7.38-40.015-11.808-40.179-13.12-4.264-6.068-6.396-10.332-6.56-12.792z m30.011 43.787l9.84-0.492c-1.804-1.476-7.872-4.428-18.368-8.528-5.576-7.216-8.528-12.136-8.528-14.596 28.044 6.068 42.147 11.644 42.311 16.728l4.264 7.38-3.936-1.804-8.036 0.328 0.164 1.968c9.84-0.492 19.352 6.56 28.864 21.156l0.164 1.968c-26.24-7.38-39.687-12.464-40.343-14.924l-6.396-9.184z m50.512-55.267l-31.488 1.476c-1.312 0-6.56-0.984-16.072-2.952l-0.164-1.804 9.84-2.46 17.712-0.82c10.332-0.492 30.996 4.1 61.991 13.94l0.656 13.12-1.804 0.164c-23.944-4.592-36.079-10.168-36.407-16.892-0.328-2.788-1.64-3.936-4.264-3.772z m-35.424 75.439l-0.164-1.968 1.804-0.164c29.356 7.708 44.279 16.564 44.771 26.24 1.312 0 2.132 0.492 2.132 1.64l-1.968 0.164c-29.192-6.396-44.115-14.596-44.607-24.272-1.312 0-1.968-0.492-1.968-1.64z m50.511 21.976c-1.804-33.291-9.676-56.907-23.616-70.683l-12.956-20.172 23.78-1.148c5.248 24.764 10.168 54.611 14.596 89.871l0.164 1.968-1.968 0.164z m-29.683 3.444l-0.164-1.968c13.94 3.116 37.391 10.168 70.355 21.156l1.804-0.164 0.656 13.12 2.296 3.608-1.968 0.164c-39.031-12.3-59.859-20.008-62.483-23.288l-10.496-12.628z m14.268-142.35l-0.656-11.316c23.944 1.312 35.915 3.936 36.079 7.708l0.492 9.348c-21.812-3.936-33.783-5.904-35.915-5.74z m2.951 16.728l-0.492-9.348-2.296-3.608 1.968-0.164c22.632 2.952 33.947 6.232 34.111 9.512l0.656 11.316-33.947-7.708z m38.868 28.371c-23.944-5.248-36.079-10.988-36.407-17.22l-2.296-7.38c25.256 5.084 37.883 9.512 38.211 13.448 25.748 7.544 40.343 11.152 43.951 10.988l0.164 1.804c-0.328 2.624-3.444 5.248-9.348 8.036l-34.439-13.448 0.164 3.772z m-30.012 28.044l-0.328-5.74-2.46-9.348c23.944 4.756 36.079 8.692 36.079 11.48l0.656 11.316c-11.316-1.968-22.632-4.592-33.947-7.708z m5.904 35.587l-0.328-5.74-2.624-9.512 1.968-0.164-2.296-3.608-0.656-13.12 33.947 9.512 0.656 13.284c-10.66-4.592-18.04-6.724-21.976-6.56l-1.968 0.164c0 1.476 8.2 5.412 24.272 12.136l2.624 11.152 0.164 1.968-33.783-9.512z m0.164 3.608c23.944 4.756 36.243 11.808 36.735 20.992l0.328 5.74-1.968 0.164c-22.632-6.888-34.275-13.284-34.603-19.188l-0.492-7.708z m3.608 31.98l-0.656-13.12c15.416 6.724 26.896 10.004 34.111 9.512l0.328 7.544 2.46 9.512-1.804 0.164c-21.812-5.412-33.291-9.84-34.439-13.612z m3.28 28.207l-0.164-1.804c19.352 6.56 29.356 9.84 30.34 9.84l0.164 1.968-7.872 0.328c-10.824 0.492-18.204-2.952-22.468-10.332z m21.32-122.014l-0.164-3.608c4.428-0.164 10.004 4.428 16.728 14.104l-1.968 0.164c-6.56-7.38-11.48-10.824-14.596-10.66zM479.119 382.196c53.627 10.168 89.871 1.968 109.222-24.6 9.676-18.696 15.58-33.455 17.876-44.279 11.808-56.743-5.904-103.154-53.299-138.742-12.464-5.084-22.632-8.364-30.34-10.004-31.652-6.068-63.631 5.084-95.939 33.455-9.348 16.4-15.252 31.16-18.04 44.279-13.284 63.795 1.968 108.238 45.919 133.166l24.6 6.724zM410.076 265.42999999999995c6.232 5.248 11.48 8.2 15.58 9.02-9.676-9.348-14.432-15.088-13.94-17.22-0.328-5.412-0.164-10.168 0.82-14.268l2.132 0.328c24.272 15.744 35.915 25.584 35.095 29.52l-2.132 10.004c-4.1-3.608-8.036-5.74-11.644-6.56l-0.82 4.1c10.824 2.132 15.252 11.972 13.448 29.52l-1.968-0.328c-22.468-16.4-34.603-27.716-36.407-33.947-0.984-2.296-0.984-5.74-0.164-10.168z m0.164 20.828c33.127 21.648 47.887 40.343 44.607 56.251-29.684-23.616-44.443-36.079-44.279-37.555-0.82-9.184-0.984-15.416-0.328-18.696z m2.46 29.519l0.492-2.132c27.06 20.664 44.607 37.227 52.643 49.527 10.332 1.968 17.056 7.38 20.5 16.236l-2.132-0.492c-36.899-6.888-60.679-28.044-71.503-63.139z m1.64-80.851c2.46-4.92 4.264-9.348 5.084-13.448 18.86 14.76 30.34 22.468 34.111 23.124l-3.772 18.04c-5.576-1.148-17.384-10.332-35.423-27.716z m7.543-14.923c2.132-9.84 5.248-14.76 9.676-14.76l27.88 21.976c-0.328 1.148-2.132 6.232-5.412 15.416-16.728-14.104-27.388-21.648-32.143-22.632z m10.824-20.828c5.084-5.904 8.528-8.692 10.496-8.364l3.936 0.82c10.988 10.496 19.188 16.236 24.6 17.22-0.82 3.936-3.936 8.856-9.512 14.76-20.008-14.596-29.848-22.796-29.52-24.436z m15.744-13.612l0.492-2.132c2.46 0.492 6.396-0.82 11.808-3.772 18.86 10.004 28.208 16.728 28.208 19.844-6.068 1.64-9.512 4.428-10.332 8.364-11.808-4.92-21.812-12.3-30.176-22.304z m20.992-6.232l0.492-2.132 14.924 0.656 12.628 2.46c2.46 0.492 8.2 3.772 17.548 9.84l-0.492 2.132c-6.888-1.312-13.612 0.164-20.5 4.264l-24.6-17.22z m7.052 69.699l4.592-21.812c2.952-14.432 12.464-25.092 28.536-31.98l4.1 0.82c24.6 34.275 32.143 73.799 22.796 118.57l-2.46 11.972-6.232 19.516-6.068-1.148c-3.936-0.82-14.268 0-30.832 2.296-17.056-30.668-21.648-63.303-14.432-98.234z m0 114.142l0.328-1.968c10.824-2.132 17.548-3.116 20.008-2.624 13.94 10.168 21.648 17.876 23.288 23.288l-21.32-1.968c-2.624-0.492-10.168-6.068-22.304-16.728z m32.471 0l3.772 2.788c1.148 0.164 6.232-2.952 15.088-9.676 10.332 13.12 18.204 20.172 23.78 21.156-0.656 2.952-8.2 4.264-22.468 4.1-13.776-10.824-20.5-16.892-20.172-18.368z m2.624-177.937l0.492-2.132 4.1 0.82c19.844 3.772 35.751 17.22 47.723 40.343-9.348-9.512-26.732-22.632-52.315-39.031z m10.332 12.3c38.211 24.272 56.087 42.311 53.791 53.791 1.968 4.92 2.624 8.528 2.296 10.824-35.095-26.568-51.495-44.935-49.363-54.939-2.296-0.492-4.428-3.608-6.724-9.676z m6.724 154.813l7.544-15.252 2.132 0.492c4.264 5.74 13.284 14.432 27.06 25.912l-0.492 2.132c-5.412 5.248-8.364 8.856-8.856 10.824l-4.1-0.82-23.288-23.288z m8.2-19.023l4.264-9.676-0.492-8.364 4.1 0.82c19.516 17.712 29.028 27.06 28.864 28.372l-0.492 2.132c-1.968 9.348-4.264 13.612-7.052 13.12-17.22-17.22-26.896-26.076-29.192-26.404z m2.952-96.923c27.716 19.844 40.999 32.635 39.687 38.703 1.312 7.216 1.804 12.136 1.148 14.76l-1.968-0.328-35.095-29.52c-2.788-14.432-4.1-22.304-3.772-23.616z m2.46 71.011l2.46-11.972 10.004 3.936c-7.052-7.872-10.332-12.628-10.004-14.268-0.656-10.496-0.82-16.728-0.328-18.696 18.696 13.612 30.832 24.928 36.243 33.947l-2.46 11.972c-7.052-7.052-12.792-10.988-16.728-11.808 8.036 11.316 13.94 17.384 17.712 18.04l-4.1 19.844c-20.5-17.876-31.324-28.208-32.799-30.996z m-235.009 261.74c-9.676 0-17.712-6.888-19.844-16.072-4.264-12.464 1.64-28.864 29.52-35.751 1.312 35.587 0 49.527 0 49.527-3.116 1.476-6.232 2.296-9.676 2.296z m402.614-31.979c0-1.148 0-2.132-0.164-3.116 2.132 3.28 3.28 7.216 3.28 11.48 0 11.644-9.184 21.156-20.5 21.156-3.444 0-6.724-0.82-9.512-2.46 14.924-0.328 26.896-12.3 26.896-27.06z m-178.101-16.892c0.656 15.744-32.963 49.199-32.963 49.199 0-18.204 9.348-42.803 12.464-48.707-8.036-11.644-13.284-32.307-13.284-32.307s33.127 15.908 33.783 31.816z m-42.968-12.956c2.46 0 4.428 1.968 4.428 4.428s-1.968 4.428-4.428 4.428-4.428-1.968-4.428-4.428 1.968-4.428 4.428-4.428z m-43.459 122.342c-0.82 8.856-2.132 16.236-2.132 16.236s-53.627 7.052-63.959-30.504c15.908 17.548 48.379 15.744 66.091 14.268z m175.313-14.76c-9.676 37.719-63.303 31.652-63.303 31.652s-1.476-7.38-2.46-16.236c17.712 1.312 50.347 2.46 65.763-15.416z m-201.061-96.594c29.848 0 53.955 21.976 53.955 49.035s-24.272 49.035-53.955 49.035c-29.848 0-53.955-21.976-53.955-49.035s24.272-49.035 53.955-49.035z m0 95.446c28.372 0 51.331-20.828 51.331-46.411s-22.96-46.411-51.331-46.411c-28.208 0-51.331 20.828-51.331 46.411s23.124 46.411 51.331 46.411z m0-79.374c20.008 0 36.243 14.76 36.243 32.799 0 18.204-16.236 32.799-36.243 32.799s-36.243-14.76-36.243-32.799c0-18.04 16.236-32.799 36.243-32.799z m15.744 17.875c1.968 2.132 4.92 2.624 6.56 1.148s1.476-4.264-0.492-6.396c-1.968-2.132-4.92-2.624-6.56-1.148-1.804 1.476-1.64 4.264 0.492 6.396z m-39.359 33.62c5.412 5.74 13.284 7.052 17.876 3.116s3.936-11.808-1.476-17.548c-5.412-5.74-13.284-7.052-17.876-3.116-4.592 4.1-3.936 11.972 1.476 17.548z m188.269-67.567c29.848 0 53.955 21.976 53.955 49.035s-24.272 49.035-53.955 49.035c-29.848 0-53.955-21.976-53.955-49.035-0.164-27.06 24.108-49.035 53.955-49.035z m0 95.446c28.372 0 51.331-20.828 51.331-46.411s-22.96-46.411-51.331-46.411c-28.208 0-51.331 20.828-51.331 46.411s22.96 46.411 51.331 46.411z m0-79.374c20.008 0 36.243 14.76 36.243 32.799 0 18.204-16.236 32.799-36.243 32.799s-36.243-14.76-36.243-32.799c0-18.04 16.236-32.799 36.243-32.799z m15.58 17.875c1.968 2.132 4.92 2.624 6.56 1.148s1.476-4.264-0.492-6.396c-1.968-2.132-4.92-2.624-6.56-1.148s-1.476 4.264 0.492 6.396z m-39.196 33.62c5.412 5.74 13.284 7.052 17.876 3.116s3.936-11.808-1.476-17.548c-5.412-5.74-13.284-7.052-17.876-3.116-4.592 4.1-3.936 11.972 1.476 17.548zM957.171 381.53999999999996c-0.656 0.984-1.312 1.804-1.968 2.952-0.328 0.328-0.492 0.656-0.82 0.984s-1.968 0.656-2.296 0.984c-11.316 14.76-29.356 40.343-62.975 46.247v34.931c0 4.264-0.82 8.692-5.084 8.692H685.919c-0.164 10.332-0.328 18.204-0.656 27.88 24.436 1.804 43.295 19.352 43.295 41.491 0 22.468-19.844 40.671-45.263 41.819-1.968 78.227-5.904 143.99-7.708 150.55l-0.492 0.984c-1.968 2.296-9.512 5.248-21.156 8.364 0.328 13.94-3.28 29.356-11.644 46.083 3.444-21.648-22.796-36.079-26.568-38.047h-0.492c0.164 4.428 0 57.727-88.231 97.906-1.476-44.115-14.104-70.683-31.98-86.755h-0.492l-5.412-0.328v-0.164h0.328l0.328-0.164c-0.82-0.164-0.984-0.492-1.148-1.148-10.332-8.036-28.044-18.204-64.451-18.204-13.284 0-28.208 1.312-44.607 3.936-4.1 0.82-7.708 1.148-11.152 1.148-5.576 0-10.004-0.984-16.072-2.296h-0.328l-0.328-0.164c-17.548-4.1-27.552-7.708-30.012-10.66l-0.492-0.984c-0.492-2.132-2.296-8.364-5.74-150.55-25.256-0.984-45.263-19.352-45.263-41.983 0-22.14 18.86-39.523 43.459-41.163-0.164-9.676-0.328-17.548-0.656-27.88H132.097c-4.428 0-10.496-4.592-10.496-8.692v-97.414c-11.808-0.656-19.68-2.296-26.732-4.756-29.028-10.496-35.751-35.915-35.587-60.023 0-1.476 0.492-2.788 0.984-3.772-6.724-11.644-6.232-25.584-5.084-35.587 0.984-8.036 2.624-12.136 4.428-13.94-4.264-8.856-0.984-18.86 1.968-26.732 3.772-10.168 12.136-11.972 22.14-10.004-4.756-9.02-2.46-17.22 11.644-28.7 4.428-3.608 14.268 7.052 26.076 16.072v-267.152c0-4.264 6.068-6.068 10.332-6.068h751.928c4.428 0 5.084 1.804 5.084 6.068V248.37199999999996c16.728 0.984 29.356 7.708 38.539 19.844 4.592 6.232 7.872 11.808 8.692 16.892 41.655 28.044 46.247 59.531 21.156 96.43zM316.433 508.638c-22.96 0.492-40.835 16.728-40.835 36.735 0 20.336 18.86 36.899 41.983 36.899v2.624l0.164-0.656v-2.296c0.492 0.164 0.984 0.164 1.476 0.328h1.804v0.492c5.248 1.312 12.792 2.952 19.352 3.772 10.004 35.095 34.111 64.123 34.111 64.123s-9.84 28.864-13.94 67.239c51.167-85.115 229.268-81.179 280.108-10.824-4.592-32.799-12.628-56.415-12.628-56.415s24.108-28.864 34.111-64.123c6.56-0.82 13.94-1.148 19.024-2.296v2.624h0.492c23.124 0 41.983-18.696 41.983-39.031 0-9.348-3.936-18.696-10.496-25.42-10.168-6.724-25.092-10.332-40.835-10.332 0-6.724 0.984-19.352 1.804-35.423h-355.71c0.164 10.332 0.492 19.844 0.656 30.176v2.132l-2.624-0.328z m-189.909-46.083c0 4.1 6.396 9.184 10.824 9.184H878.78c4.264 0 5.576-4.92 5.576-9.184v-29.028c0 0.492-6.724 1.476-10.824 1.148-22.796-2.296-44.443-3.608-60.679-9.184H176.215l-1.312-2.788v-60.187c-10.824 5.904-25.584 8.364-48.215 7.872v92.167h-0.164z m694.857-476.249H180.807V282.649c10.824 4.264 15.58 10.988 15.088 21.976-0.492 8.364-4.264 13.612-15.088 16.728v7.38c5.904 1.968 3.936 4.264 5.248 6.724 5.412 10.496 5.576 18.204-5.248 23.78v55.759h615.318c-2.788-5.576-4.756-7.872-5.576-12.3-1.476-8.036-1.64-18.368-1.148-28.208l-91.511-59.039s-28.372-15.252-16.728-32.799c11.644-17.384 32.307-11.48 50.511-0.328 12.136 7.38 39.687 23.288 63.959 40.179 0.164-0.164 0.328-0.164 0.492-0.328-1.804-1.312-2.952-2.296-2.952-2.296-11.152-7.544-6.888-36.899 15.416-41.327 3.116-0.656 9.676 0 9.676 1.148v-293.391h3.116zM177.855 271.16999999999996c0 3.444-2.132 6.232-4.756 8.036 1.64 0.492 3.772 0.984 4.756 1.476v-9.512z m0 51.659c-0.984 0.164-1.64 0.328-2.46 0.492 0.82 0.492 1.476 0.984 2.46 1.476v-1.968zM878.78-65.51700000000005H137.348c-4.264 0-10.824 2.132-10.824 6.396V206.88300000000004c5.904 1.148 4.92 2.296 6.724 3.28 19.68 8.036 38.047 25.256 25.748 33.127-0.164 0-1.476 0.164-1.64 0.164 9.512 3.772 17.548 9.84 17.548 20.664v-289.291l655.17 2.46V269.202c9.84-9.676 21.648-14.596 34.603-10.332 3.28-6.56 13.612-9.84 19.516-10.332v-307.495c0-4.428-1.148-6.56-5.412-6.56z m0 0"  horiz-adv-x="1024" />
      
      <glyph glyph-name="up" unicode="&#58905;" d="M174.08 155.64800000000002l-59.008 57.216L512 612.352 908.928 212.86400000000003 849.92 155.64800000000002 512 491.52z"  horiz-adv-x="1024" />
      
      <glyph glyph-name="down" unicode="&#58906;" d="M849.92 612.352l59.008-57.216L512 155.64800000000002 115.072 555.136 174.08 612.352 512 276.48z"  horiz-adv-x="1024" />
      
      <glyph glyph-name="home" unicode="&#59022;" d="M786.49566667 346.11016667c0 20.83666667 17.21766667 37.39633333 38.05433333 37.39633333 20.83666667 0 37.506-16.55966668 37.506-37.39633333v-368.809c0-20.83666667-16.66933333-37.72533332-37.506-37.72533335H202.30133332c-20.94633332 0-38.05433333 16.88866667-38.05433332 37.72533335V346.11016667c0 20.83666667 17.21766667 37.39633333 38.05433332 37.39633333 20.398 0 37.506-16.55966668 37.506-37.39633333v-331.08366668h546.68833335V346.11016667z m-699.89266667-10.199l426.384 425.28733332 426.93233333-425.28733332c14.476-14.476 38.60266667-14.476 53.07866667 0 14.69533333 14.476 14.69533333 38.493 0 52.969L540.51333333 840.92616667l-0.76766666 0.54833333c-14.69533333 14.476-38.60266667 14.476-53.298 0l-452.92333335-452.48466667c-14.91466667-14.476-14.91466667-38.493 0-52.969 14.476-14.476 38.60266667-14.476 53.07866668-0.10966666z"  horiz-adv-x="1024" />
      
      <glyph glyph-name="ok-circle" unicode="&#59061;" d="M516.16-63.168000000000006a448.512 448.512 0 0 0-318.016 131.712 447.104 447.104 0 0 0-96.352 142.944c-23.456 55.456-35.36 114.368-35.36 175.072s11.904 119.584 35.36 175.072c22.656 53.568 55.072 101.632 96.352 142.944s89.376 73.728 142.944 96.352c55.456 23.456 114.368 35.36 175.072 35.36s119.584-11.904 175.072-35.36c53.568-22.656 101.632-55.072 142.944-96.352s73.696-89.376 96.352-142.944c23.456-55.456 35.36-114.368 35.36-175.072s-11.904-119.584-35.36-175.072c-22.656-53.568-55.072-101.632-96.352-142.944s-89.376-73.728-142.944-96.352a447.008 447.008 0 0 0-175.072-35.36z m0 838.048c-214.112 0-388.32-174.208-388.32-388.32S302.048-1.759999999999991 516.16-1.759999999999991s388.32 174.208 388.32 388.32S730.272 774.88 516.16 774.88z m-81.408-642.048L209.504 358.08000000000004l79.584 79.584 145.664-145.664 308.48 308.48 79.584-79.584z"  horiz-adv-x="1024" />
      
      <glyph glyph-name="music" unicode="&#59024;" d="M575.392 832h-74.496v-633.504c-115.904 52.704-251.584-17.792-274.112-122.496-7.296-34.112 7.904-70.912 21.888-87.808 79.296-94.592 252.192-50.496 331.616 51.296 35.2 45.216 32.288 84.608 32.288 181.312V608.512c48.8-36.288 103.904-70.112 123.712-135.008 12.192-40.288-4.096-107.296-16.992-141.504-3.904-10.304-14.688-18.912-9.696-29.216 34.208-25.408 51.104 28.608 60.896 51.2 10.592 24.512 20.8 54.688 24.384 75.616C833.184 653.184 595.488 661.696 575.392 832z"  horiz-adv-x="1024" />
      
      <glyph glyph-name="reply-fill" unicode="&#58897;" d="M507.904 835.5840000000001q93.184 1.024 175.104-33.792t143.872-94.72 97.792-141.312 36.864-174.592q1.024-88.064-30.208-165.888t-87.04-137.728-131.072-98.816-162.304-48.128q-22.528-3.072-48.128-5.12t-56.832-3.072-69.632 0-86.528 6.144q-106.496 10.24-158.208 26.624t-41.472 18.432q54.272 9.216 93.184 29.696 20.48 11.264 16.896 32.256t-19.968 39.424Q128 142.336 95.744 218.62400000000002T61.44 382.976q-1.024 93.184 33.792 175.104t95.232 143.36T332.8 798.72t175.104 36.864z m199.68-450.56q0-26.624 18.432-45.568t45.056-18.944 45.568 18.944 18.944 45.568-18.944 45.056-45.568 18.432-45.056-18.432-18.432-45.056z m-257.024 0q0-26.624 19.456-46.08t46.08-19.456q27.648 0 46.592 19.456t18.944 46.08q0 27.648-18.944 46.592t-46.592 18.944q-26.624 0-46.08-18.944t-19.456-46.592z m-253.952 1.024q0-26.624 18.944-46.08t45.568-19.456q27.648 0 46.592 19.456t18.944 46.08-18.944 45.568-46.592 18.944q-26.624 0-45.568-18.944t-18.944-45.568z"  horiz-adv-x="1024" />
      
      <glyph glyph-name="login-weibo" unicode="&#58997;" d="M411.264 288.352c-17.984 7.52-41.184-0.224-52.256-17.536-11.232-17.408-5.952-38.112 11.872-46.208 18.112-8.224 42.144-0.416 53.344 17.408 11.04 18.016 5.216 38.592-12.96 46.336z m44.288 18.304c-6.88 2.72-15.52-0.576-19.552-7.328-3.936-6.784-1.76-14.528 5.152-17.376 7.008-2.88 16 0.448 20.064 7.36 3.872 6.944 1.376 14.752-5.632 17.312z m-28.032 120.032c-115.968-11.424-203.936-82.208-196.384-158.08 7.52-75.904 107.648-128.16 223.648-116.736s203.936 82.208 196.384 158.144c-7.52 75.872-107.648 128.096-223.648 116.672z m101.792-178.976c-23.68-53.344-91.776-81.792-149.536-63.232-55.744 17.92-79.36 72.8-54.944 122.24 23.968 48.48 86.368 75.872 141.536 61.568 57.152-14.72 86.304-68.416 62.944-120.576zM512 896C229.248 896 0 666.784 0 384s229.248-512 512-512c282.784 0 512 229.248 512 512S794.784 896 512 896z m-56.48-794.976c-145.344 0-293.952 70.208-293.952 185.664 0 60.352 38.4 130.176 104.48 196.064 88.256 87.936 191.168 128 229.888 89.408 17.088-16.992 18.752-46.464 7.776-81.632-5.728-17.696 16.672-7.904 16.672-7.936 71.328 29.76 133.568 31.52 156.32-0.864 12.128-17.248 10.944-41.472-0.224-69.504-5.184-12.928 1.6-14.944 11.456-17.888 40.192-12.416 84.928-42.464 84.928-95.392-0.032-87.616-126.784-197.952-317.344-197.952z m263.168 367.168c4.704 14.464 1.76 30.976-9.216 43.072s-27.136 16.672-42.048 13.536v0.032a23.008 23.008 0 1 0-9.632 44.992 90.464 90.464 0 0 0 85.984-27.712c22.432-24.768 28.448-58.496 18.848-88.064a23.04 23.04 0 1 0-43.936 14.144z m134.56-43.328v-0.096a26.88 26.88 0 0 0-51.104 16.512c13.984 43.168 5.12 92.416-27.552 128.576s-80.96 49.92-125.504 40.48a26.72 26.72 0 1 0-11.2 52.288h0.032a185.824 185.824 0 0 0 176.544-56.96 184.32 184.32 0 0 0 38.784-180.8z"  horiz-adv-x="1024" />
      
      <glyph glyph-name="group" unicode="&#58899;" d="M1328.736-13.279999999999973l-2.944 24.192-6.592 29.344-9.536 27.872-13.216 28.608-13.216 22.016-18.336 21.28-20.544 16.864-28.608 16.128-20.544 9.536-54.272 13.216-23.488 8.8-29.344 13.952-23.488 11.008-28.608 13.216-22.016 12.48v77.76l9.536 11.008 8.8 14.656 6.592 14.656 5.12 18.336 5.856 22.016 2.208 16.864 3.168-0.736 6.368 0.992 4.896 3.904 5.376 8.8 3.424 10.272 1.952 12.704 2.432 22.976 0.992 19.552-0.992 16.64-3.424 10.272-6.848 3.904-3.904-0.992 3.424 22.016 2.944 26.4 0.992 23.968-0.48 19.072-2.944 17.6-5.376 17.12-7.328 15.648-10.272 17.6-11.744 14.656-13.696 11.232-17.6 11.232-22.016 10.272-18.592 4.896-22.496 3.904-22.016 0.48-22.496-3.904-21.504-7.328-19.072-7.84-16.64-10.752-15.392-13.696-14.656-16.128-13.216-19.072-9.536-20.544-5.856-23.488-0.736-30.08 2.944-27.872 3.68-35.936h-8.064l-5.12-6.592-1.472-11.744 1.472-27.872 3.68-32.288 2.944-16.128 5.12-8.8 9.536-5.12 5.856 0.736 3.68-25.664 3.68-15.392 5.856-16.864 8.064-16.864 9.536-13.216 7.328-9.536-0.736-79.232 7.808-2.72 10.752-2.944 11.552-4.288 11.008-4.288 10.208-3.776 9.152-4.576 11.008-4.576 24.192-13.984 9.952-7.264 12.896-9.664 11.008-10.208 10.496-12.896 11.008-14.24 11.68-16.384 10.08-19.36 8.608-20.96 7.52-19.36 5.248-18.144 3.616-18.944 3.616-21.376 2.432-24.992 0.416-16.928-0.8-15.104-3.424-11.68-6.528-12.832-7.584-8.544-13.92-7.072h289.376l13.216 6.592 10.272 10.272 6.592 11.008 1.472 13.952zM443.232 789.376l-16.128-17.728-14.528-20.96-10.496-22.592-6.464-25.792-0.8-33.056 3.232-30.656 4.032-39.52h-8.864l-5.632-7.264-1.6-12.896 1.6-30.656 4.032-35.488 3.232-17.728 5.632-9.664 10.496-5.632 6.464 0.8 4.032-28.224 4.032-16.928 6.464-18.56 8.864-18.56 10.496-14.528 8.064-10.496-0.8-87.072-13.696-8.864-32.256-15.328-33.056-14.528-26.624-12.896-20.96-8.864-23.392-7.264-24.192-4.832-23.392-5.632-24.192-10.496-22.592-11.296-20.16-14.528-22.592-22.592-16.128-23.392-12.096-22.592-9.664-24.192-9.664-27.424-4.832-21.76-4.032-18.56-2.432-21.76v-19.36l3.232-19.36 9.664-12.896 14.528-9.664 18.56-1.6H965.76l14.528 7.264 11.296 11.296 7.264 12.096 1.6 15.328-1.6 20.16-3.232 26.624-7.264 32.256-10.496 30.656-14.528 31.456-14.528 24.192-20.16 23.392-22.592 18.56-31.456 17.728-22.592 10.496-59.68 14.528-25.792 9.664-32.256 15.328-25.792 12.096-31.456 14.528-24.192 13.696v85.472l10.496 12.096 9.664 16.128 7.264 16.128 5.632 20.16 6.464 24.192 2.432 18.56 3.488-0.8 6.976 1.088 5.376 4.288 5.92 9.664 3.776 11.296 2.144 13.984 2.688 25.28 1.088 21.504-1.088 18.272-3.776 11.296-7.52 4.288-4.288-1.088 3.776 24.192 3.232 29.024 1.088 26.336-0.544 20.96-3.232 19.36-5.92 18.816-8.064 17.216-11.296 19.36-12.896 16.128-15.04 12.352-19.36 12.352-24.192 11.296-20.416 5.376-24.736 4.288-24.192 0.544-24.736-4.288-23.648-8.064-20.96-8.608-18.272-11.84z"  horiz-adv-x="1440" />
      
      <glyph glyph-name="right" unicode="&#58882;" d="M283.648 721.92l57.216 59.008L740.352 384 340.864-12.927999999999997 283.648 46.08000000000004 619.52 384z"  horiz-adv-x="1024" />
      
      <glyph glyph-name="return" unicode="&#58972;" d="M927.872 417.952H168.864l308.736 308.864c11.68 11.68 11.424 30.88-0.544 42.88s-31.168 12.224-42.88 0.544L75.232 411.104a29.952 29.952 0 0 1-5.28-5.728 29.76 29.76 0 0 1-5.92-18.336 29.44 29.44 0 0 1 8.608-21.44L434.208 3.840000000000032c11.68-11.68 30.88-11.456 42.88 0.544s12.256 31.168 0.544 42.88l-309.152 309.28h759.424c16.512 0 29.92 13.728 29.92 30.688s-13.408 30.688-29.92 30.688z"  horiz-adv-x="1024" />
      
      <glyph glyph-name="play" unicode="&#58962;" d="M512 896C229.376 896 0 666.624 0 384s229.376-512 512-512 512 229.376 512 512S794.624 896 512 896z m0-991.232C245.76-95.23199999999997 32.768 117.75999999999999 32.768 384S245.76 863.232 512 863.232 991.232 650.24 991.232 384 778.24-95.23199999999997 512-95.23199999999997z m221.184 487.424L393.216 588.8c-4.096 4.096-8.192 4.096-12.288 0a8.8 8.8 0 0 1-8.192-8.192v-393.216c0-4.096 4.096-8.192 4.096-8.192 4.096-4.096 8.192-4.096 12.288 0l344.064 196.608c4.096 4.096 4.096 4.096 4.096 8.192 4.096 4.096 0 8.192-4.096 8.192z m0 0"  horiz-adv-x="1024" />
      
      <glyph glyph-name="prev" unicode="&#58970;" d="M62.56 384.096L485.952 807.744a48.64 48.64 0 0 0 68.736-68.736L199.616 383.93600000000004l356.8-356.8A48.64 48.64 0 0 0 487.68-41.60000000000002l-39.744 39.744 0.256 0.256L62.528 384.064z m388.8 0L874.752 807.744a48.64 48.64 0 0 0 68.736-68.736L588.416 383.93600000000004l356.8-356.8A48.64 48.64 0 0 0 876.48-41.60000000000002l-39.776 39.744 0.288 0.256-385.664 385.664z"  horiz-adv-x="1024" />
      
      <glyph glyph-name="screen-restore" unicode="&#59224;" d="M582.592 454.592v320h50.016v-234.592l274.016 274.016 35.392-35.392-274.016-274.016h234.592v-50.016h-320zM117.408-46.01599999999996l274.016 274.016v-234.592h50.016v320h-320v-50.016h234.592l-274.016-274.016 35.392-35.392z m14.592 810.016h302.016V814.016h-352v-352h50.016V764.032z m760-760h-302.016v-50.016h352v352h-50.016v-302.016z"  horiz-adv-x="1024" />
      
      <glyph glyph-name="question" unicode="&#59033;" d="M468.128 159.00800000000004a37.504 37.504 0 1 1 37.504 37.504c-20.704 0-37.504-16.8-37.504-37.504z m37.504 92.608h-3.008a31.552 31.552 0 0 0-28.512 34.624v-0.128a204.16 204.16 0 0 0 74.848 113.632l0.512 0.384c56.64 56.64 57.76 75.008 58.496 93.76a81.056 81.056 0 0 1-23.264 60.768 98.336 98.336 0 0 1-71.2 30.4h-1.632 0.096a94.496 94.496 0 0 1-94.496-94.496 31.68 31.68 0 1 0-63.36 0 157.536 157.536 0 0 0 157.504 156h0.416H512h0.288a161.92 161.92 0 0 0 117.376-50.176l0.064-0.064a143.872 143.872 0 0 0 39.744-106.048v0.288c-2.24-40.864-14.624-72.736-77.248-135.008-31.488-31.488-51.744-55.488-53.632-75.008a31.552 31.552 0 0 0-31.104-30.016h-0.032z m277.856-139.872a385.568 385.568 0 0 0-276.736-116.608c-213.536 0-386.624 173.088-386.624 386.624 0 161.344 98.848 299.616 239.264 357.568l2.56 0.928a380.032 380.032 0 0 0 149.792 30.208c213.536 0 386.624-173.088 386.624-386.624 0-106.688-43.2-203.264-113.056-273.216zM512 833.984c-248.544 0-450.016-201.472-450.016-450.016S263.456-66.048 512-66.048s450.016 201.472 450.016 450.016S760.544 833.984 512 833.984z"  horiz-adv-x="1024" />
      
      <glyph glyph-name="search" unicode="&#58901;" d="M439.328 120.51199999999994a363.456 363.456 0 0 0-258.144 106.944 364.672 364.672 0 0 0-78.24 116.032c-19.04 45.024-28.704 92.832-28.704 142.112s9.664 97.12 28.704 142.144c18.4 43.488 44.704 82.528 78.24 116.032a364.064 364.064 0 0 0 258.144 106.912 363.872 363.872 0 0 0 258.144-106.912 364.32 364.32 0 0 0 106.944-258.176 363.456 363.456 0 0 0-106.944-258.144 364.672 364.672 0 0 0-116.032-78.24 362.88 362.88 0 0 0-142.112-28.704z m0 676.96c-171.968 0-311.872-139.904-311.872-311.872s139.904-311.872 311.872-311.872 311.904 139.904 311.904 311.872-139.904 311.872-311.872 311.872z m451.36-846.208a82.432 82.432 0 0 0-58.528 24.128l-157.472 152.64 37.024 38.208 157.888-153.056c5.6-5.6 13.088-8.704 21.088-8.704s15.456 3.072 21.056 8.704c5.6 5.632 8.704 13.12 8.704 21.12s-3.104 15.456-8.704 21.056l-0.288 0.32-152.736 157.568 38.208 37.024 152.608-157.44c15.584-15.648 24.16-36.416 24.16-58.56 0-22.208-8.64-43.04-24.288-58.72s-36.512-24.288-58.72-24.288zM281.024 327.23199999999997c-42.336 42.336-65.664 98.592-65.632 158.432s23.328 116.064 65.632 158.4l37.632-37.632a171.008 171.008 0 0 1 0-241.568l-37.632-37.632z"  horiz-adv-x="1024" />
      
      <glyph glyph-name="tree" unicode="&#58926;" d="M962.688 258.528c-8.736 54.176-34.304 97.6-73.088 133.856-44.736 41.824-99.296 65.728-156.512 84.448-26.944 8.8-54.08 16.96-81.12 25.44a821.568 821.568 0 0 0 121.888 12.256c39.904 1.248 79.872 0.288 120.64 0.288-30.656 44.224-74.592 71.104-127.264 84.384-52.992 13.344-103.744 9.728-152.256-32.096 18.72 66.336 12.48 120.192-38.816 160.832-32.448 25.728-77.12 31.008-111.328 14.912 58.592-31.136 82.048-84.256 94.304-145.088-44.64 69.056-110.08 96.448-187.712 86.496-56.128-7.2-110.72-26.272-166.016-40.064 15.68-14.368 31.136-24.128 47.936-27.84 51.424-11.392 103.392-20.288 155.104-30.528 37.024-7.328 75.168-12.16 104.448-40.864-78.112 23.456-155.936 30.048-235.552 9.088-90.624-23.84-172.512-74.208-195.36-124.608 46.944 23.968 95.808 18.784 144.608 17.152 37.728-1.28 76.096-3.456 113.248 1.6 52.672 7.168 104.512 20.64 159.2 31.904-91.872-62.08-186.528-122.336-159.2-259.904 58.848 100.192 163.392 150.112 229.952 238.112-16.256-91.488 6.976-169.376 66.432-237.824 41.824-48.16 89.984-92 110.72-156 12.768 141.888-25.824 270.784-97.92 396.32l313.664-202.24z m-449.216 61.568c-27.776-14.08-39.008-35.968-42.24-64.992-6.08-54.432-15.168-108.544-21.792-162.912-3.904-32.032-5.504-64.32-8.16-96.544h79.968c9.92 78.208 19.744 154.24 28.928 230.368a45.92 45.92 0 0 1-3.712 22.592c-10.176 23.648-21.472 46.784-32.96 71.488z"  horiz-adv-x="1024" />
      
      <glyph glyph-name="rmb" unicode="&#58974;" d="M512 896C229.248 896 0 666.784 0 384s229.216-512 512-512 512 229.216 512 512S794.784 896 512 896z m0-987.584C249.344-91.58399999999995 36.416 121.34400000000005 36.416 384S249.344 859.5840000000001 512 859.5840000000001 987.584 646.656 987.584 384 774.656-91.58399999999995 512-91.58399999999995z m226.752 392.736h-194.304v69.792h194.304a32.224 32.224 0 1 1 0 64.416H589.76l149.632 209.568a32.256 32.256 0 0 1-55.84 32.192l-171.328-240-171.328 240a32.256 32.256 0 0 1-55.84-32.192l149.632-209.568H285.696a32.224 32.224 0 1 1 0-64.416H480v-69.792H285.696a32.224 32.224 0 1 1 0-64.416H480v-132.448a32.224 32.224 0 0 1 64.512 0v132.448h194.304a32.224 32.224 0 1 1 0 64.416"  horiz-adv-x="1024" />
      
      <glyph glyph-name="release" unicode="&#58889;" d="M990.784 828.544a25.28 25.28 0 0 1-11.008 2.368c-14.464 0-27.616-10.816-27.392-10.816-8.8-4.416-880.608-443.232-911.456-459.456-17.408-9.12-27.36-24.736-25.92-40.704 1.12-13.152 9.792-23.52 23.104-27.776l290.24-91.584 4.832-1.472 16.672 50.048-254.336 79.552L876.256 734.976c-82.816-93.888-420.544-476.32-436.096-493.952-20.096-22.496-29.504-45.088-29.408-70.976l0.288-153.28h-0.096l0.096-53.664v-1.952c1.184-13.504 12.736-24.256 26.528-24.256s25.504 10.72 26.752 24.256c0 0 0.544 191.04 0 205.088-0.48 12.48 5.088 26.528 10.688 33.056L940.768 727.104c-21.376-106.4-126.688-629.76-128.256-637.408-0.832-4.064-2.592-4.064-3.36-4.064a6.368 6.368 0 0 0-2.048 0.384c-7.456 2.368-268.832 81.536-279.936 84.896l-4.704 1.44-17.152-50.496 5.088-1.6c2.592-0.768 258.912-79.104 284.384-86.464 5.088-1.472 10.24-2.24 15.456-2.24 27.008 0 49.568 19.36 54.88 46.976 2.08 10.944 27.04 134.688 55.904 277.984 39.776 197.152 84.8 420.608 85.92 427.616l0.608 3.328c2.144 11.52 5.696 30.528-16.8 41.088z"  horiz-adv-x="1024" />
      
      <glyph glyph-name="refresh-3" unicode="&#59818;" d="M820.384 697.152A441.408 441.408 0 0 1 512 822.176c-244.608 0-442.912-198.304-442.912-442.912S267.392-63.648000000000025 512-63.648000000000025c206.08 0 379.264 140.736 428.736 331.328h-117.888c-45.76-127.456-167.648-218.624-310.848-218.624-182.368 0-330.208 147.84-330.208 330.208S329.632 709.472 512 709.472a328.96 328.96 0 0 0 228.64-92.032l-183.616-183.616h397.888V831.712l-134.56-134.56z"  horiz-adv-x="1024" />
      
      <glyph glyph-name="reduce-circle" unicode="&#58902;" d="M512-65.50400000000002c-60.608 0-119.392 11.904-174.816 35.296-53.504 22.592-101.504 55.008-142.688 96.192s-73.6 89.216-96.192 142.688c-23.392 55.392-35.296 114.208-35.296 174.784a447.2 447.2 0 0 0 131.488 317.504 446.784 446.784 0 0 0 142.688 96.192c55.392 23.392 114.208 35.296 174.816 35.296s119.392-11.904 174.784-35.296c53.504-22.592 101.504-55.008 142.688-96.192s73.6-89.184 96.192-142.688c23.392-55.392 35.296-114.208 35.296-174.816s-11.904-119.392-35.296-174.784c-22.592-53.504-55.008-101.504-96.192-142.688s-89.216-73.6-142.688-96.192a446.944 446.944 0 0 0-174.816-35.296z m0 848c-220 0-399.008-179.008-399.008-399.008S292-15.519999999999982 512-15.519999999999982s399.008 179.008 399.008 399.008S732 782.496 512 782.496z m260-423.488H252a24.992 24.992 0 0 0 0 49.984h520a24.992 24.992 0 0 0 0-49.984z"  horiz-adv-x="1024" />
      
      <glyph glyph-name="speaker" unicode="&#58949;" d="M587.168 754.72a16.768 16.768 0 0 1-17.984-2.72l-259.232-229.28H161.696a16.768 16.768 0 0 1-16.768-16.768v-267.872c0-9.248 7.488-16.768 16.768-16.768h144.064a16.8 16.8 0 0 1 16.768 16.768v252.32a17.28 17.28 0 0 1 4.896 3.008l236.128 208.864v-653.344l-160.736 137.632c-2.112 1.824-90.304 78.688-93.92 76.16-4.416-3.104-15.776-17.6-18.432-22.528-0.96-1.76-2.208-1.344 15.424-16.384 25.664-21.952 73.792-61.536 75.136-62.72l188.384-161.344a16.736 16.736 0 0 1 27.68 12.736V739.392a16.704 16.704 0 0 1-9.888 15.264zM290.464 254.81600000000003H175.424v234.368h115.04v-234.368z m457.28 121.184a113.408 113.408 0 0 0-84.704-109.696 16.768 16.768 0 0 0-8.48 32.416 79.904 79.904 0 0 1 0 154.56 16.736 16.736 0 1 0 8.48 32.416 113.44 113.44 0 0 0 84.704-109.696z m117.216-0.192a242.112 242.112 0 0 0-126.72-212.896 16.64 16.64 0 0 0-22.688 6.752 16.768 16.768 0 0 0 6.72 22.72 208.576 208.576 0 0 1 109.184 183.424 208.64 208.64 0 0 1-109.728 183.776 16.704 16.704 0 1 0 15.904 29.472 242.08 242.08 0 0 0 127.36-213.28z"  horiz-adv-x="1024" />
      
      <glyph glyph-name="senior" unicode="&#58996;" d="M719.904 292.06399999999996l-205.184 130.112v105.6c100.896-66.112 216.8-141.088 216.8-141.088s139.2-45.6 139.2 106.496c0 92.992-172.512 112.096-197.216 11.808l-69.6 47.296s24.192 101.504 162.4 106.496c138.208 4.896 192-94.592 190.912-199.616-1.216-104.704-136-198.304-237.312-167.104z m-158.912 164.608c-4-19.008-23.008-33.696-47.616-33.696l-6.912 4.288-217.312 137.792s-118.208 32.8-128.416-83.392c-10.208-116.096 147.392-129.504 186.816-23.808l81.696-47.616s-65.088-119.104-198.496-119.104c-133.504 0-230.208 175.296-116.8 297.792 113.504 122.4 218.592 64.608 256.992 35.712 16.384-12.384 85.312-57.888 158.592-105.888l3.104-2.4c28.288-18.208 33.408-35.616 28.288-59.712z m-126.88-264.32h212c16.704 0 30.304-13.6 30.304-30.304v-15.104a30.336 30.336 0 0 0-30.304-30.304h-212a30.336 30.336 0 0 0-30.304 30.304v15.104c0 16.8 13.6 30.304 30.304 30.304z"  horiz-adv-x="1024" />
      
      <glyph glyph-name="slider" unicode="&#59156;" d="M228.704 683.904v-66.688H112V683.904h116.704z m333.184-266.592v-66.688H112v66.688h449.888z m-266.496-266.72v-66.592H112v66.688l183.392-0.096z m116.608 600c8.992 0 16.8-3.296 23.488-9.888 6.496-6.496 9.888-14.496 9.888-23.488v-133.312c0-8.992-3.296-16.8-9.888-23.488a32.416 32.416 0 0 0-23.488-9.888H278.816c-8.992 0-16.8 3.296-23.488 9.888a32.128 32.128 0 0 0-9.888 23.488V717.088c0 8.992 3.296 16.8 9.888 23.488 6.496 6.496 14.304 9.888 23.488 9.888l133.184 0.096z m66.688-533.28c8.992 0 16.8-3.296 23.488-9.888 6.496-6.496 9.888-14.496 9.888-23.488v-133.312c0-8.992-3.296-16.8-9.888-23.488a32.416 32.416 0 0 0-23.488-9.888H345.28c-8.992 0-16.8 3.296-23.488 9.888a32.416 32.416 0 0 0-9.888 23.488v133.312c0 8.992 3.296 16.8 9.888 23.488 6.496 6.496 14.304 9.888 23.488 9.888l133.408 0.096zM912 683.904v-66.688H462.112V683.904H912z m0-533.312v-66.592H528.608v66.688l383.392-0.096z m-166.784 333.312c8.992 0 16.8-3.296 23.488-9.888 6.496-6.496 9.888-14.496 9.888-23.488v-133.312c0-8.992-3.296-16.8-9.888-23.488a32.416 32.416 0 0 0-23.488-9.888h-133.216c-8.992 0-16.8 3.296-23.488 9.888a32.128 32.128 0 0 0-9.888 23.488v133.408c0 8.992 3.296 16.8 9.888 23.488 6.496 6.496 14.496 9.888 23.488 9.888l133.216-0.096z m166.784-66.592v-66.688h-116.704v66.688H912z"  horiz-adv-x="1024" />
      
      <glyph glyph-name="more-vertical" unicode="&#58993;" d="M512 623.6800000000001c40.512 0 73.376 35.776 73.376 79.904S552.512 783.488 512 783.488c-40.512 0-73.376-35.776-73.376-79.904S471.488 623.6800000000001 512 623.6800000000001z m0-159.776c-40.512 0-73.376-35.776-73.376-79.904s32.864-79.904 73.376-79.904c40.512 0 73.376 35.776 73.376 79.904S552.512 463.904 512 463.904z m0-319.584c-40.512 0-73.376-35.744-73.376-79.904 0-44.128 32.864-79.904 73.376-79.904s73.376 35.776 73.376 79.904c0 44.16-32.864 79.904-73.376 79.904z"  horiz-adv-x="1024" />
      
      <glyph glyph-name="print" unicode="&#58989;" d="M843.936 603.744h-47.36v121.6a90.08 90.08 0 0 1-94.976 85.344h0.224H312.288a81.504 81.504 0 0 1-85.344-85.536v0.192-121.6h-56.32a81.504 81.504 0 0 1-85.344-85.536V518.4v-325.12a89.184 89.184 0 0 1 85.152-93.856h56.928v-52.48a89.6 89.6 0 0 1 89.6-89.6h389.984a89.6 89.6 0 0 1 89.6 89.6v52.48h47.36a97.76 97.76 0 0 1 94.72 93.664V518.4a90.08 90.08 0 0 1-94.976 85.344h0.224z m-564.48 121.6a30.72 30.72 0 0 0 32.96 33.696H312.32h389.536c18.784 0 42.656-11.52 42.656-33.696v-121.6H279.456z m465.088-678.4v-0.416c0-20.736-16.8-37.536-37.536-37.536H317.024a37.536 37.536 0 0 0-37.536 37.536v0.448-0.032V217.60000000000002v0.864c0 20.736 16.8 37.536 37.536 37.536h389.984c20.736 0 37.536-16.8 37.536-37.536v-0.448 0.032z m142.496 146.336a45.696 45.696 0 0 0-42.528-42.656h-47.904v66.144a89.6 89.6 0 0 1-89.6 89.6H317.024a89.6 89.6 0 0 1-89.6-89.6v-65.28H170.688a37.6 37.6 0 0 0-33.248 42.88l-0.032-0.192V518.432a31.136 31.136 0 0 0 33.376 33.696h-0.096 673.28c19.2 0 42.656-11.52 42.656-33.696z m-640 281.184H209.504a13.248 13.248 0 0 0-0.064 26.016h38.912a13.216 13.216 0 1 0-0.096-25.984h0.096z m94.304 0H298.688a13.216 13.216 0 1 0 0.064 25.984h-0.096 42.656a13.248 13.248 0 0 0 0.064-26.016h-0.096zM768 357.98400000000004H248.32A13.248 13.248 0 0 0 248.256 384h519.776a13.248 13.248 0 0 0 0.064-26.016H768z"  horiz-adv-x="1024" />
      
      <glyph glyph-name="refresh" unicode="&#58985;" d="M928 810.656c-18.144 0-32-13.856-32-32V614.4C816 747.744 669.856 832 512 832 264.544 832 64 631.456 64 384s200.544-448 448-448c230.4 0 422.4 172.8 445.856 402.144 2.144 17.056-10.656 33.056-28.8 35.2-17.056 2.144-33.056-10.656-35.2-28.8A383.136 383.136 0 0 0 512 0C299.744 0 128 171.74400000000003 128 384S299.744 768 512 768c137.6 0 264.544-74.656 332.8-192h-151.456c-18.144 0-32-13.856-32-32s13.856-32 32-32H960V778.656c0 18.144-14.944 32-32 32z"  horiz-adv-x="1024" />
      
      <glyph glyph-name="rss" unicode="&#59400;" d="M810.656 63.96799999999996C810.656 416.896 523.552 704 170.656 704v-85.344c305.824 0 554.656-248.832 554.656-554.72h85.344z m-298.656 0h85.344c0 235.296-191.392 426.72-426.656 426.72v-85.344c188.192 0 341.344-153.12 341.344-341.376zM170.656 149.34400000000005a85.344 85.344 0 1 1 170.688 0 85.344 85.344 0 1 1-170.688 0z"  horiz-adv-x="1024" />
      
      <glyph glyph-name="rate-solid" unicode="&#59002;" d="M957.12 492.512a30.624 30.624 0 0 1-26.72 20.8l-282.72 21.92-107.488 276.608a30.656 30.656 0 0 1-57.216 0l-107.488-276.608-282.72-21.92a30.72 30.72 0 0 1-18.016-53.536l217.536-193.344-67.968-291.296a30.72 30.72 0 0 1 46.656-32.704l240.64 156.704 240.64-156.704a30.624 30.624 0 0 1 34.4 0.608 30.72 30.72 0 0 1 12.288 32.128l-67.968 291.296 217.536 193.344a30.656 30.656 0 0 1 8.704 32.736z"  horiz-adv-x="1024" />
      
      <glyph glyph-name="upload" unicode="&#59004;" d="M831.488 478.208c0 143.36-114.688 258.048-253.952 258.048-98.304 0-184.32-57.344-225.28-139.264C327.68 605.184 307.2 609.28 286.72 609.28c-90.112 0-159.744-73.728-159.744-159.744 0-16.384 4.096-28.672 8.192-40.96C57.344 379.904 0 310.27200000000005 0 224.25599999999997a192.288 192.288 0 0 1 192.512-192.512h192.512v192.512H258.048l258.048 258.048 258.048-258.048h-126.976v-192.512h192.512v4.096c106.496 16.384 192.512 110.592 192.512 221.184-8.192 114.688-94.208 208.896-200.704 221.184z"  horiz-adv-x="1032" />
      
      <glyph glyph-name="snowflake" unicode="&#59057;" d="M480.704-64h63.712v123.296l68.864-68.256 44.96 44.544-113.792 112.8v180.032l177.28-102.432 41.664-155.648 60.736 16.288-25.408 94.88 85.248-49.28 31.872 55.232-84.736 48.96 94.496 25.344-16.48 61.632-156.064-41.856-176.928 102.24 177.664 102.656 155.52-41.696 16.288 60.8-94.784 25.408 85.248 49.28-31.872 55.232-84.736-48.96 25.312 94.592L763.2 697.6l-41.824-156.192-176.96-102.24V644.512l113.856 113.952-44.448 44.512-69.408-69.44v98.56h-63.712v-97.92L411.52 803.424l-45.056-45.12 114.24-114.368v-204.96l-156.544 90.464L283.456 684.48l-60.192-16.448 24.832-94.624-107.552 62.144-31.872-55.232 106.656-61.632-93.472-25.568 16.064-61.248 154.496 42.24 156.16-90.24-156.128-90.24-154.496 42.24-15.84-60.416 94.304-25.792-107.52-62.144 31.872-55.232 106.656 61.632-24.608-93.792 61.024-16.672 40.704 155.04 156.192 90.24v-180.448l-113.792-112.8 44.352-43.936 69.472 68.832v-124.288z"  horiz-adv-x="1024" />
      
      <glyph glyph-name="time" unicode="&#59021;" d="M512 829.44c-118.976 0-230.816-46.336-314.944-130.496S66.592 502.944 66.592 384c0-118.976 46.336-230.848 130.464-314.944S393.024-61.440000000000055 512-61.440000000000055c118.976 0 230.848 46.336 314.976 130.496S957.44 265.024 957.44 384c0 118.976-46.336 230.848-130.464 314.944S630.976 829.44 512 829.44z m275.584-721.024c-73.6-73.632-171.488-114.176-275.584-114.176s-201.984 40.544-275.584 114.176C162.784 182.01599999999996 122.24 279.904 122.24 384s40.544 201.984 114.176 275.584C310.016 733.216 407.904 773.76 512 773.76s201.984-40.544 275.584-114.176c73.632-73.6 114.176-171.488 114.176-275.584s-40.576-201.984-114.208-275.584z m-268.48 231.808V628.096a27.84 27.84 0 0 1-55.68 0v-306.24a27.84 27.84 0 0 1 16.704-25.504l0.192-0.064m254.4 25.568a31.072 31.072 0 0 0-31.072-31.072h-207.2a31.072 31.072 0 0 0 0 62.144h207.2c17.152 0 31.072-13.92 31.072-31.072z"  horiz-adv-x="1024" />
      
      <glyph glyph-name="voice" unicode="&#59016;" d="M463.392 644.064c-4.544 4.544-10.496 7.008-16.928 7.008s-12.352-2.464-16.928-7.008c-4.544-4.544-7.008-10.496-7.008-16.928s2.464-12.352 7.008-16.928A317.76 317.76 0 0 0 523.2 384a317.824 317.824 0 0 0-93.664-226.208c-4.544-4.544-7.008-10.496-7.008-16.928s2.464-12.352 7.008-16.928c4.544-4.544 10.496-7.008 16.928-7.008s12.352 2.464 16.928 7.008a365.696 365.696 0 0 1 80.8 121.664c17.92 44.032 26.912 90.624 26.912 138.4s-9.088 94.272-26.912 138.4a366.176 366.176 0 0 1-80.8 121.664z m318.496-25.12a619.84 619.84 0 0 1-137.088 206.528c-4.544 4.544-10.496 7.008-16.928 7.008s-12.352-2.464-16.928-7.008a23.968 23.968 0 0 1 0-33.824A574.688 574.688 0 0 0 779.808 384a574.688 574.688 0 0 0-168.864-407.648 23.968 23.968 0 0 1 33.856-33.824 619.84 619.84 0 0 1 137.088 206.528c30.368 74.784 45.696 153.824 45.696 234.944s-15.328 160.16-45.696 234.912zM299.488 427.616a61.44 61.44 0 0 1-87.04 0 61.44 61.44 0 0 1 43.52-105.056 61.44 61.44 0 0 1 61.536 61.536 61.44 61.44 0 0 1-18.016 43.52z"  horiz-adv-x="1024" />
      
      <glyph glyph-name="star" unicode="&#58880;" d="M749.632-84.15999999999997c-15.68 0-31.232 3.872-45.088 11.296l-192.512 103.648-192.48-103.616c-31.2-16.64-70.304-14.4-99.04 5.312a92.096 92.096 0 0 0-38.848 90.688l37.696 225.248-162.688 162.464a90.56 90.56 0 0 0-22.048 94.208 93.312 93.312 0 0 0 74.976 61.76l221.312 32.896 96.128 199.584c15.488 32.096 48.864 52.8 84.992 52.8s69.504-20.736 84.96-52.8l96.16-199.584 221.312-32.896c34.88-5.152 63.616-28.8 74.976-61.696a90.656 90.656 0 0 0-22.016-94.24l-162.752-162.464 37.76-225.28a92.032 92.032 0 0 0-38.816-90.624c-16-10.912-34.624-16.672-53.92-16.672zM512 91.55200000000002c4.64 0 9.28-1.152 13.472-3.392l205.952-110.848c12.384-6.656 28.32-5.792 39.936 2.144 11.392 7.84 17.12 20.992 14.88 34.304l-40.16 239.744a28.448 28.448 0 0 0 7.968 24.832l173.152 172.832c9.472 9.44 12.672 23.04 8.416 35.488a36.576 36.576 0 0 1-29.536 23.936l-236.224 35.136a28.384 28.384 0 0 0-21.44 15.776l-102.688 213.152c-6.016 12.544-19.264 20.608-33.696 20.608s-27.68-8.096-33.76-20.608l-102.656-213.12a28.48 28.48 0 0 0-21.44-15.776l-236.224-35.136a37.024 37.024 0 0 1-29.536-24c-4.256-12.416-1.024-25.984 8.448-35.392l173.12-172.864a28.448 28.448 0 0 0 7.968-24.832l-40.128-239.744c-2.24-13.312 3.488-26.432 14.976-34.368 11.424-7.84 27.36-8.768 39.936-2.048l205.856 110.848a28.608 28.608 0 0 0 13.472 3.392zM200.32 439.2a14.208 14.208 0 0 0-2.24 28.256l9.44 1.536c7.808 1.344 15.072-4 16.32-11.776s-4-15.072-11.776-16.32l-9.44-1.536a13.984 13.984 0 0 0-2.304-0.192z m52.224 8.48a14.24 14.24 0 0 0-2.688 28.16l153.92 29.696 58.048 133.152a14.24 14.24 0 0 0 26.08-11.36l-61.056-140.032a14.336 14.336 0 0 0-10.368-8.288l-161.28-31.104a12.736 12.736 0 0 0-2.688-0.256z"  horiz-adv-x="1024" />
      
      <glyph glyph-name="star-fill" unicode="&#58968;" d="M752-43.200000000000045c-9.6 0-20.8 3.2-30.4 8l-208 104L304-35.200000000000045c-20.8-11.2-48-9.6-67.2 4.8s-30.4 40-25.6 64l43.2 224-164.8 153.6c-17.6 17.6-24 44.8-17.6 67.2 8 24 27.2 41.6 52.8 44.8l228.8 41.6 102.4 208c11.2 22.4 33.6 36.8 57.6 36.8s48-14.4 57.6-36.8l102.4-208 228.8-40c24-3.2 44.8-20.8 51.2-44.8 8-24 1.6-49.6-16-67.2l-164.8-155.2 41.6-224c4.8-25.6-6.4-49.6-25.6-64-9.6-8-22.4-12.8-36.8-12.8z"  horiz-adv-x="1024" />
      
      <glyph glyph-name="test" unicode="&#59026;" d="M513.056-31.072000000000003a413.088 413.088 0 0 0-293.408 121.536 414.272 414.272 0 0 0-88.928 131.904c-21.632 51.168-32.608 105.536-32.608 161.536s10.976 110.336 32.608 161.536c20.896 49.408 50.816 93.792 88.928 131.872s82.464 68 131.872 88.928a412.64 412.64 0 0 0 161.536 32.608c64.832 0 126.912-14.528 184.544-43.2a419.008 419.008 0 0 0 142.048-115.744 32 32 0 0 0-50.336-39.52 349.12 349.12 0 0 1-276.256 134.464c-193.504 0-350.944-157.44-350.944-350.944S319.552 32.960000000000036 513.056 32.960000000000036C713.12 32.960000000000036 864 174.36800000000005 864 361.91999999999996a32 32 0 0 0 64 0c0-109.984-43.488-210.624-122.496-283.328-76.8-70.688-180.64-109.632-292.448-109.632z m123.488 306.464a32 32 0 0 0-27.744 47.904l172.48 301.472a32 32 0 1 0 55.552-31.808l-172.48-301.472a32 32 0 0 0-27.808-16.128z m-8.512-12h-0.032a31.552 31.552 0 0 0-19.264 6.496l0.064-0.064-205.44 154.432a32 32 0 0 0 38.464 51.136l205.44-154.432a32 32 0 0 0-19.264-57.568z m-408.96-122.976h-0.032a31.872 31.872 0 0 0-19.008 6.272l0.096-0.064a32 32 0 0 0-6.816 44.736l202.496 275.36A32 32 0 0 0 447.36 428.8l-202.496-275.36a31.904 31.904 0 0 0-25.792-13.056z"  horiz-adv-x="1024" />
      
      <glyph glyph-name="theme" unicode="&#58986;" d="M512 800C229.696 800 0 570.304 0 288c0-90.368 30.304-174.496 85.344-236.896 55.264-62.624 129.152-97.12 208.128-97.12 81.568 0 161.536 36.832 231.264 106.592l2.272 2.496c65.792 81.472 132.896 121.056 205.088 121.056 46.72 0 89.216-15.872 126.688-29.92 30.336-11.328 56.576-21.12 81.216-21.12C1024 133.08799999999997 1024 241.664 1024 288c0 282.304-229.696 512-512 512z m428-602.912c-13.088 0-35.296 8.288-58.784 17.088-40.48 15.136-90.848 33.952-149.12 33.952-92.352 0-175.328-46.944-253.76-143.456-57.184-56.704-121.056-86.688-184.832-86.688-60.352 0-117.216 26.784-160.128 75.456C88.64 144.12800000000004 64 213.216 64 288 64 535.04 264.96 736 512 736s448-200.96 448-448c0-27.328-1.952-90.912-20-90.912z m-203.296 182.848a64 64 0 1 1 128 0 64 64 0 1 1-128 0z m-343.68 202.688a64 64 0 1 1 128 0 64 64 0 1 1-128 0z m215.68-26.688a64 64 0 1 1 128 0 64 64 0 1 1-128 0z m-381.312-112a64 64 0 1 1 128 0 64 64 0 1 1-128 0zM182.4 197.24800000000005a96 96 0 1 1 192 0 96 96 0 1 1-192 0z"  horiz-adv-x="1024" />
      
      <glyph glyph-name="tips" unicode="&#59138;" d="M967.264 578.528c-24.928 58.88-60.544 111.776-105.952 157.152A493.12 493.12 0 0 1 511.68 880.48 492.736 492.736 0 0 1 162.048 735.6800000000001 493.12 493.12 0 0 1 17.216 386.08 493.12 493.12 0 0 1 162.048 36.48000000000002a492.576 492.576 0 0 1 349.632-144.8 492.736 492.736 0 0 1 349.632 144.8 493.12 493.12 0 0 1 144.8 349.6c0 66.72-13.056 131.488-38.848 192.448zM511.68-55.13599999999997c-243.296 0-441.248 197.92-441.248 441.216S268.384 827.296 511.68 827.296c243.264-0.032 441.216-197.952 441.216-441.216S754.976-55.13599999999997 511.68-55.13599999999997z m-45.536 628.704a45.504 45.504 0 0 1 91.008 0 45.504 45.504 0 0 1-91.008 0z m76.576-389.44a31.072 31.072 0 0 0-62.144 0v242.848a31.072 31.072 0 0 0 62.144 0v-242.848z"  horiz-adv-x="1024" />
      
      <glyph glyph-name="more" unicode="&#58975;" d="M224 288c-52.928 0-96 43.072-96 96s43.072 96 96 96 96-43.072 96-96-43.072-96-96-96z m288 0c-52.928 0-96 43.072-96 96s43.072 96 96 96 96-43.072 96-96-43.072-96-96-96z m288 0c-52.928 0-96 43.072-96 96s43.072 96 96 96 96-43.072 96-96-43.072-96-96-96z"  horiz-adv-x="1024" />
      
      <glyph glyph-name="spread-left" unicode="&#58987;" d="M942.976 770.912H99.424a28.128 28.128 0 0 1-28.128-28.128v-56.224a28.16 28.16 0 0 1 28.128-28.128h843.552a28.128 28.128 0 0 1 28.128 28.128V742.784a28.096 28.096 0 0 1-28.128 28.128zM99.424 321.024h449.888a28.128 28.128 0 0 1 28.128 28.128v56.224a28.16 28.16 0 0 1-28.128 28.16H99.424a28.16 28.16 0 0 1-28.128-28.16v-56.224c0-15.552 12.576-28.128 28.128-28.128z m843.552-224.928H99.424a28.16 28.16 0 0 1-28.128-28.096v-56.256c0-15.52 12.576-28.128 28.128-28.128h843.552a28.128 28.128 0 0 1 28.128 28.128v56.256a28.096 28.096 0 0 1-28.128 28.096z m6.656 288.352l-224.928 141.184v-282.368l224.928 141.184z"  horiz-adv-x="1024" />
      
      <glyph glyph-name="upload-circle" unicode="&#58927;" d="M512-128c282.784 0 512 229.216 512 512S794.784 896 512 896 0 666.784 0 384s229.216-512 512-512z m0 976c256.256 0 464-207.744 464-464S768.256-80 512-80 48 127.74400000000003 48 384 255.744 848 512 848z m-134.272-313.472H480v-478.016a32 32 0 0 1 64 0V534.528h102.272c17.6 0 23.424 11.552 12.928 25.696l-128.128 172.608c-10.496 14.144-27.648 14.144-38.144 0L364.8 560.2239999999999c-10.496-14.112-4.672-25.696 12.928-25.696z"  horiz-adv-x="1024" />
      
      <glyph glyph-name="template-1" unicode="&#58966;" d="M43.52 601.6l409.6-176.64c58.88-30.72 110.08 0 110.08 0l414.72 174.08 2.56 2.56c10.24 5.12 15.36 15.36 15.36 28.16 0 15.36-10.24 28.16-23.04 30.72L563.2 837.12c-56.32 23.04-97.28 0-97.28 0L46.08 660.48c-12.8-5.12-20.48-17.92-20.48-30.72s7.68-23.04 17.92-28.16zM512 222.72000000000003c-2.56 0-7.68 0-10.24 2.56L15.36 440.32c-12.8 5.12-17.92 20.48-12.8 33.28s20.48 17.92 33.28 12.8L512 276.48l476.16 209.92c12.8 5.12 28.16 0 33.28-12.8s0-28.16-12.8-33.28l-486.4-215.04c-2.56-2.56-7.68-2.56-10.24-2.56z m0-151.04c-2.56 0-7.68 0-10.24 2.56L15.36 289.28c-12.8 5.12-17.92 20.48-12.8 33.28 5.12 10.24 20.48 17.92 33.28 10.24L512 125.44000000000005l476.16 207.36c12.8 5.12 28.16 0 33.28-12.8s0-28.16-12.8-33.28l-486.4-215.04H512z m0-151.04c-2.56 0-7.68 0-10.24 2.56L15.36 138.24c-12.8 5.12-17.92 20.48-12.8 33.28s20.48 17.92 33.28 12.8L512-25.600000000000023l476.16 209.92c12.8 5.12 28.16 0 33.28-12.8s0-28.16-12.8-33.28l-486.4-215.04c-2.56-2.56-7.68-2.56-10.24-2.56z"  horiz-adv-x="1024" />
      
      <glyph glyph-name="tips-fill" unicode="&#60206;" d="M512 832C264.608 832 64 631.392 64 384s200.608-448 448-448 448 200.608 448 448S759.392 832 512 832z m-32-232c0 4.384 3.616 8 8 8h48c4.384 0 8-3.616 8-8v-272c0-4.384-3.616-8-8-8h-48a8.032 8.032 0 0 0-8 8v272zM512 160a48 48 0 1 0 0.032 96.032A48 48 0 0 0 512 160z"  horiz-adv-x="1024" />
      
      <glyph glyph-name="templeate-1" unicode="&#58928;" d="M320 384H106.656a64 64 0 0 1-64-64v-213.344a64 64 0 0 1 64-64H320a64 64 0 0 1 64 64V320a64 64 0 0 1-64 64z m-64-42.656v-256H170.656v256H256z m-170.656-234.688V320c0 11.744 9.568 21.344 21.344 21.344h42.656v-256H106.688a21.376 21.376 0 0 0-21.344 21.344z m256 0a21.376 21.376 0 0 0-21.344-21.344H277.344v256H320c11.744 0 21.344-9.568 21.344-21.344v-213.344z m234.656 448H234.656a85.44 85.44 0 0 1-85.344-85.344v-42.656h42.656v42.656c0 23.52 19.136 42.656 42.656 42.656h42.656v-96h21.344v96h213.344v-426.656h-85.344l-21.344-42.656h170.656A85.44 85.44 0 0 1 661.28 128V469.344a85.44 85.44 0 0 1-85.344 85.344zM618.656 128c0-23.52-19.136-42.656-42.656-42.656h-42.656V512H576c23.52 0 42.656-19.136 42.656-42.656V128z m234.688-85.344A85.44 85.44 0 0 1 938.688 128V640a85.44 85.44 0 0 1-85.344 85.344h-512A85.44 85.44 0 0 1 256 640v-42.656h42.656V640c0 23.52 19.136 42.656 42.656 42.656h85.344v-85.344H448V682.656h298.656v-597.344H704l-21.344-42.656h170.656zM896 128c0-23.52-19.136-42.656-42.656-42.656H768V682.688h85.344c23.52 0 42.656-19.136 42.656-42.656v-512z"  horiz-adv-x="1024" />
      
      <glyph glyph-name="subtraction" unicode="&#59006;" d="M784.992 348H238.976c-19.808 0-36 16.192-36 36s16.192 36 36 36h546.016c19.808 0 36-16.192 36-36s-16.192-36-36-36z"  horiz-adv-x="1024" />
      
      <glyph glyph-name="tabs" unicode="&#58922;" d="M310.304 523.648H124.128a31.04 31.04 0 0 1-31.04-31.04v-186.176c0-17.12 13.888-31.04 31.04-31.04h186.176a31.04 31.04 0 0 1 31.04 31.04v186.176a31.04 31.04 0 0 1-31.04 31.04z m-15.52-217.216H139.648c-17.12 0-15.52-1.6-15.52 15.52v155.136c0 17.12-1.6 15.52 15.52 15.52h155.136c17.12 0 15.52 1.6 15.52-15.52v-155.136c0-17.12 1.6-15.52-15.52-15.52z m124.128 46.528h480.96V384h-480.96v-31.04z m0-124.128h480.96v31.04h-480.96v-31.04z m0-139.616h480.96v31.04h-480.96v-31.04z m0 403.392h480.96v31.04h-480.96v-31.04zM992.96 725.344h-15.52V849.472a31.04 31.04 0 0 1-31.04 31.04h-170.656a31.04 31.04 0 0 1-31.04-31.04v-124.128h-139.648V849.472a31.04 31.04 0 0 1-31.04 31.04h-170.656a31.04 31.04 0 0 1-31.04-31.04v-124.128H248.192V849.472a31.04 31.04 0 0 1-31.04 31.04H30.976a31.04 31.04 0 0 1-31.04-31.04V-96.96000000000004c0-17.12 13.888-31.04 31.04-31.04h961.952a31.04 31.04 0 0 1 31.04 31.04V694.304a31.04 31.04 0 0 1-31.04 31.04z m0-791.296a31.04 31.04 0 0 0-31.04-31.04H62.048a31.04 31.04 0 0 0-31.04 31.04V818.4a31.04 31.04 0 0 0 31.04 31.04h124.128a31.04 31.04 0 0 0 31.04-31.04v-124.128h744.736a31.04 31.04 0 0 0 31.04-31.04v-729.216z"  horiz-adv-x="1024" />
      
      <glyph glyph-name="survey" unicode="&#59058;" d="M722.367934 849.439695c38.655988 0 70.015978-31.29599 70.015978-69.823979v-342.111893l6.687998 16.319995-397.215876-402.591874 16.671995 6.975998H138.048117a69.759978 69.759978 0 0 0-70.015978 69.599978V872.767687l-23.359993-23.263992h677.663788zM21.344153 895.99968v-768.22376a116.415964 116.415964 0 0 1 116.735964-116.127964h290.271909l410.783872 416.35187V779.647716a116.607964 116.607964 0 0 1-116.767964 116.383964H21.344153z m754.527765-588.639816l-16.511995-16.447995 126.49596-126.015961 103.135968 102.719968-126.495961 126.015961-86.623972-86.271973z m70.079978 36.895988l93.47197-93.08797v32.927989l-70.079978-69.823978H902.399878l-93.471971 93.087971v-32.92799l70.079978 69.823978h-33.055989z m-327.103898-292.895908l-4.991999-4.991998-31.61599-157.503951 158.143951 31.48799 278.527913 277.439913-126.495961 126.015961-273.535914-272.447915z m257.02392 223.10393l93.47197-93.087971v32.92799l-257.023919-255.99992 11.935996 6.367998-116.831964-23.263993 27.487992-27.391991 23.359993 116.351964-6.399998-11.903997 257.023919 255.99992h-33.055989z m-349.279891 23.807993c17.631994 0 31.90399-14.207996 31.90399-31.77599v-8.415998a31.77599 31.77599 0 0 0-31.90399-31.77599 31.80799 31.80799 0 0 0-31.90399 31.77599v8.415998c0 17.535995 14.175996 31.77599 31.90399 31.77599z m-148.255954 254.17592s2.495999-21.951993 27.135992-21.951993 26.079992 21.951993 26.079991 21.951993c-1.631999 71.071978 31.42399 104.831967 99.103969 101.471969 45.055986-5.055998 68.383979-30.399991 69.951979-76.063977-3.135999-20.351994-20.223994-46.623985-50.655985-78.751975-40.287987-40.607987-60.447981-76.959976-60.447981-109.055966v-32.92799s3.103999-19.647994 25.375992-19.647993 25.375992 19.647994 25.375992 19.647993v22.879993c0 26.815992 19.295994 59.071982 57.951982 96.41597 40.447987 37.087988 60.511981 71.007978 60.511981 101.471968-3.327999 84.479974-47.519985 128.51196-132.959958 131.935959-98.271969 1.631999-147.423954-50.815984-147.423954-157.343951z"  horiz-adv-x="1024" />
      
      <glyph glyph-name="table" unicode="&#58925;" d="M143.808 686.624v-601.696h737.376V686.624H143.808z m276.512-386.816v128.928h184.352v-128.928h-184.352z m184.352-42.976v-128.928h-184.352v128.928h184.352z m0 343.84v-128.928h-184.352V600.672h184.352z m-230.432 0v-128.928H189.888V600.672h184.352z m-184.352-171.936h184.352v-128.928H189.888v128.928z m460.864 0h184.352v-128.928h-184.352v128.928z m0 42.976V600.64h184.352v-128.928h-184.352zM189.888 256.832h184.352v-128.928H189.888v128.928z m460.864-128.928v128.928h184.352v-128.928h-184.352z"  horiz-adv-x="1024" />
      
      <glyph glyph-name="success" unicode="&#59031;" d="M661.312 521.056c10.24 12.288 30.688 14.304 42.944 4.096s14.304-30.688 4.096-42.944l-204.544-243.424c-10.24-12.288-30.688-14.304-42.944-4.096l-132.96 110.464c-12.288 10.24-14.304 30.688-4.096 42.944s30.688 14.304 42.944 4.096l110.464-92.032 184.096 220.896zM512-66.01599999999996C262.464-66.01599999999996 61.984 134.43200000000002 61.984 384S262.432 834.016 512 834.016 962.016 633.568 962.016 384 761.568-66.01599999999996 512-66.01599999999996z m0 40.928c224.992 0 409.088 184.096 409.088 409.088S736.992 793.088 512 793.088 102.912 608.992 102.912 384 287.008-25.087999999999965 512-25.087999999999965z"  horiz-adv-x="1024" />
      
      <glyph glyph-name="water" unicode="&#58934;" d="M862.304 33.696000000000026c-59.456 0-107.776 49.248-107.776 109.824 0 18.816 4.832 37.472 13.984 53.92a7.68 7.68 0 0 0 0.48 1.056l93.312 158.56 13.248-22.496 79.552-135.2a5.952 5.952 0 0 0 1.248-2.4c8.992-16.352 13.728-34.816 13.728-53.472 0-60.544-48.352-109.824-107.776-109.824z m62.016 154.88a4.704 4.704 0 0 0-0.32 0.704l-61.696 113.728-61.696-113.728c-0.096-0.224-0.192-0.48-0.32-0.672a85.44 85.44 0 0 1-9.664-39.616c0-43.68 32.16-79.2 71.712-79.2s71.648 35.52 71.648 79.232c0 13.824-3.328 27.552-9.664 39.584z m-241.632 204.416c-89.184 0-161.696 76.608-161.696 170.816 0 29.28 7.264 58.272 20.992 83.904a9.28 9.28 0 0 0 0.704 1.632L682.688 896l19.872-35.04h-0.032l119.36-210.272a9.504 9.504 0 0 0 1.888-3.712 178.24 178.24 0 0 0 20.576-83.168c0-94.208-72.512-170.816-161.664-170.816z m108.736 237.12a6.944 6.944 0 0 0-0.512 1.216l-108.192 192.608-108.224-192.64a9.44 9.44 0 0 0-0.512-1.184c-11.104-20.416-17.024-34.016-17.024-57.472 0-73.984 56.448-143.744 125.76-143.744s125.696 60.192 125.696 134.176c0 23.456-5.888 46.624-16.96 67.072z m-252.736-353.12a14.4 14.4 0 0 0 3.008-5.856 274.304 274.304 0 0 0 33.184-130.688c0-148-116.832-268.448-260.48-268.448s-260.512 120.416-260.512 268.448c0 46.048 11.68 91.552 33.824 131.872a14.176 14.176 0 0 0 1.184 2.56L314.432 662.4639999999999l32.064-55.04h-0.064l192.288-330.432zM314.4 590.624L119.808 257.79200000000003a14.144 14.144 0 0 0-0.928-2.016 236.096 236.096 0 0 1-30.496-115.872c0-127.84 101.408-231.808 226.048-231.808s225.984 103.968 225.984 231.808c0 40.512-10.56 80.576-30.496 115.872a15.36 15.36 0 0 0-0.96 2.08L314.4 590.592z"  horiz-adv-x="1024" />
      
      <glyph glyph-name="screen-full" unicode="&#58914;" d="M641.76 511.904l205.216 204.512-0.704-115.904c-0.288-9.6 7.488-18.08 17.088-17.824h12.288c9.6 0.288 17.664 5.92 17.824 15.68l0.576 172.576 0.288 9.184c0.128 4.8-0.992 9.184-4.096 12.288s-7.36 5.088-12.288 4.96l-8.768-0.128c-0.128 0-0.288 0-0.416-0.128L697.6 797.824a18.464 18.464 0 0 1-17.824-17.952v-12.288a19.52 19.52 0 0 1 20.064-17.824l112.8-0.288-204.672-203.808a23.872 23.872 0 0 1 0-33.792 23.648 23.648 0 0 1 33.792 0z m-258.656-192.8l-205.376-203.808 0.704 115.328c0.288 9.6-7.488 18.08-17.12 17.824h-12.992c-9.6-0.288-17.664-5.952-17.824-15.68l-0.576-172.704-0.288-9.184c-0.128-4.8 0.992-9.184 4.096-12.288s7.36-5.088 12.288-4.96l8.768 0.128c0.128 0 0.288 0 0.416 0.128l171.872-0.704a18.464 18.464 0 0 1 17.824 17.952v12.288a19.52 19.52 0 0 1-20.064 17.824l-112.8 0.288 204.512 203.808a23.872 23.872 0 0 1 0 33.792 23.296 23.296 0 0 1-33.504 0z m510.944-259.072l-0.416 172.704c-0.288 9.6-8.192 15.392-17.824 15.68h-12.288c-9.6 0.288-17.248-8.192-17.12-17.824l0.704-115.904-205.376 204.384a23.872 23.872 0 1 1-33.792-33.792l204.512-203.808-112.8-0.288c-9.6 0.288-18.528-6.496-20.064-17.824v-12.288c0.288-9.6 8.192-17.664 17.824-17.952l171.168 0.704c0.128 0 0.288-0.128 0.416-0.128l8.768-0.128a16.192 16.192 0 0 1 12.288 4.96c3.104 3.104 4.224 7.488 4.096 12.288l-0.128 9.184zM212.224 749.504l112.8 0.288c9.6-0.288 18.528 6.496 20.064 17.824v12.288a18.656 18.656 0 0 1-17.824 17.952l-172-0.704c-0.128 0-0.288 0.128-0.416 0.128l-8.768 0.128a16.192 16.192 0 0 1-12.288-4.96 16.064 16.064 0 0 1-4.096-12.288l0.288-9.184 0.416-172.704c0.128-9.6 8.192-15.392 17.824-15.68h12.992c9.6-0.288 17.248 8.192 17.088 17.824l-0.576 115.328 205.216-203.968a23.872 23.872 0 1 1 33.792 33.792L212.224 749.504z m0 0"  horiz-adv-x="1024" />
      
      <glyph glyph-name="tread" unicode="&#59077;" d="M860.8 172.79999999999995c12.8 0 25.6 3.2 35.2 12.8 6.4 9.6 6.4 22.4 3.2 32L800 553.6c-6.4 28.8-25.6 51.2-48 64-9.6 6.4-22.4 9.6-32 9.6H182.4c-22.4 3.2-41.6-6.4-51.2-25.6-6.4-9.6-6.4-19.2-9.6-28.8v-342.4c0-19.2 9.6-38.4 28.8-48 6.4-3.2 12.8-6.4 19.2-6.4h192l19.2-25.6 147.2-188.8c6.4-9.6 19.2-12.8 28.8-9.6 16 3.2 25.6 19.2 22.4 35.2l-9.6 118.4-6.4 67.2h297.6z m-233.6-57.6l9.6-128c3.2-28.8-9.6-54.4-28.8-73.6-35.2-32-92.8-28.8-124.8 6.4l-156.8 195.2H179.2c-19.2 0-38.4 6.4-57.6 16-35.2 19.2-57.6 57.6-57.6 99.2V572.8c0 19.2 6.4 38.4 16 57.6 19.2 38.4 57.6 60.8 99.2 54.4h537.6c67.2-3.2 121.6-48 137.6-112l102.4-339.2c6.4-28.8 3.2-57.6-12.8-80-19.2-22.4-48-38.4-76.8-38.4h-240zM304 627.2v-451.2h57.6V627.2H304z"  horiz-adv-x="1024" />
      
      <glyph glyph-name="user" unicode="&#59248;" d="M611.2 342.4c70.4 54.4 115.2 140.8 115.2 230.4 0 156.8-128 288-284.8 288s-284.8-128-284.8-284.8c0-92.8 44.8-182.4 115.2-236.8C108.8 272 0 105.60000000000002 0-80c0-9.6 9.6-19.2 19.2-19.2h848c9.6 0 19.2 9.6 19.2 19.2 0 188.8-112 355.2-275.2 422.4z m-576-396.8C44.8 115.20000000000005 156.8 268.79999999999995 320 320c6.4 3.2 12.8 9.6 12.8 16s-3.2 16-9.6 19.2c-76.8 41.6-128 131.2-128 224 0 134.4 112 246.4 246.4 246.4s246.4-112 246.4-249.6c0-89.6-51.2-176-128-220.8-6.4-3.2-9.6-9.6-9.6-19.2 0-6.4 6.4-12.8 12.8-16 160-51.2 275.2-204.8 281.6-377.6H35.2z m777.6 416c54.4 41.6 86.4 108.8 86.4 176 0 89.6-54.4 172.8-134.4 208-9.6 3.2-22.4 0-25.6-9.6s0-22.4 9.6-25.6c67.2-28.8 112-99.2 112-172.8 0-67.2-38.4-131.2-96-163.2-6.4-3.2-9.6-9.6-9.6-19.2 0-6.4 6.4-12.8 12.8-16 131.2-41.6 217.6-160 217.6-297.6 0-9.6 9.6-19.2 19.2-19.2s19.2 9.6 19.2 19.2c-3.2 140.8-86.4 262.4-211.2 320z"  horiz-adv-x="1024" />
      
      <glyph glyph-name="wifi" unicode="&#59360;" d="M723.008 275.48800000000006c-56.192 48.896-129.6 78.496-210.016 78.496s-153.792-29.6-210.112-78.592a8.096 8.096 0 0 1-0.8-11.2l36-42.912c2.912-3.392 8-3.808 11.392-0.896 43.616 38.4 100.8 61.6 163.488 61.6s119.904-23.2 163.488-61.504a8.064 8.064 0 0 1 11.392 0.896l36 42.912a8.064 8.064 0 0 1-0.896 11.2z m117.376 140.128c-88.704 73.888-202.816 118.4-327.392 118.4s-238.688-44.512-327.488-118.4a8.032 8.032 0 0 1-0.992-11.296l36-42.912a7.936 7.936 0 0 1 11.2-0.992c76.288 63.392 174.4 101.6 281.312 101.6s204.992-38.208 281.216-101.6a7.968 7.968 0 0 1 11.2 0.992l36 42.912a8.064 8.064 0 0 1-0.992 11.296z m116.704 138.976a701.12 701.12 0 0 1-446.112 159.392 701.248 701.248 0 0 1-443.712-157.408 8 8 0 0 1-1.088-11.392l36-42.912a8 8 0 0 1 11.104-1.088 629.28 629.28 0 0 0 397.696 140.8c151.808 0 291.008-53.504 400-142.688a7.936 7.936 0 0 1 11.2 1.088l36 42.912a7.872 7.872 0 0 1-1.088 11.296zM448 117.98400000000004a64 64 0 1 1 128 0 64 64 0 1 1-128 0z"  horiz-adv-x="1024" />
      
      <glyph glyph-name="username" unicode="&#58991;" d="M514.592 824.896c-144.096 0-260.992-118.464-260.992-264.544a264.832 264.832 0 0 1 109.696-214.912c-135.36-59.36-230.144-195.872-230.144-354.944h0.896c1.536-21.376 18.656-38.368 40.128-38.368s38.56 17.056 40.128 38.368h0.64c0 0.928-0.096 1.792-0.096 2.72v0.16l-0.064 0.192c0.064 159.968 120 291.04 273.024 304.928 8.96-0.928 17.6-2.72 26.848-2.72 144.096 0 260.992 118.464 260.992 264.544s-116.928 264.544-261.024 264.544z m0-447.36c-99.776 0-180.704 81.984-180.704 183.168s80.864 183.168 180.704 183.168c99.712 0 180.64-81.984 180.64-183.168s-80.864-183.168-180.64-183.168z m381.44-384.16c0 0.352-0.192 0.64-0.192 0.992a388.224 388.224 0 0 1-111.36 269.12 38.88 38.88 0 0 1-28 11.968c-21.568 0-39.136-17.76-39.136-39.68 0-11.136 4.576-21.12 11.84-28.32l-0.096-0.064a308.64 308.64 0 0 0 85.312-213.856c0-1.056-0.16-1.984-0.16-3.04h0.992c1.504-21.376 18.688-38.368 40.128-38.368 21.472 0 38.56 17.056 40.128 38.368h0.608c0 0.8-0.096 1.504-0.096 2.272-0.064 0.16 0.064 0.352 0.064 0.544z"  horiz-adv-x="1024" />
      
      <glyph glyph-name="util" unicode="&#58929;" d="M282.112 639.072c-13.12-13.216-30.624-20.512-49.28-20.512-18.624 0-36.16 7.296-49.312 20.512L150.624 672.096l98.624 99.04 32.896-33.024c13.184-13.216 20.48-30.816 20.48-49.536a69.6 69.6 0 0 0-20.512-49.472zM249.312 705.088H249.28L216.384 672.096a23.104 23.104 0 0 1 32.864-0.032 23.296 23.296 0 0 1 0.032 32.992z m147.392-208.736L249.568 638.784l32.288 33.632 147.168-142.464-32.32-33.6z m354.752-362.432l-133.344 140.128 32.896 32.992 133.344-140.128-32.896-32.992z m98.72-65.952a115.872 115.872 0 0 0-164.256-0.128l-147.744 154.592 32.896 33.024 147.744-154.624a69.632 69.632 0 0 1 98.496 0.16 70.464 70.464 0 0 1-0.128 99.2l-147.424 154.272 32.864 33.024 147.456-154.304a117.28 117.28 0 0 0 0.128-165.216z m-48.448 400.416a161.408 161.408 0 0 0-115.072-47.872c-43.456 0-84.32 16.992-115.072 47.872s-47.68 71.872-47.68 115.52 16.928 84.704 47.68 115.552l42.496 42.656 32.896-32.992-42.496-42.656a116.064 116.064 0 0 1-34.08-82.56c0-31.168 12.096-60.448 34.08-82.496s51.168-34.208 82.208-34.208c31.072 0 60.256 12.128 82.208 34.208l42.496 42.656 32.896-33.024-42.496-42.656z m42.496 42.656l-49.312 49.504-16.448-16.48a92.064 92.064 0 0 0-65.728-27.36h-0.032a92.128 92.128 0 0 0-65.728 27.36c-17.536 17.6-27.264 41.088-27.264 66.016s9.664 48.416 27.264 66.048l16.448 16.512-49.344 49.504 32.896 33.024 82.208-82.528-49.312-49.472a46.656 46.656 0 0 1-13.632-33.056c0-12.448 4.864-24.192 13.632-32.992s20.448-13.696 32.896-13.696c12.416 0 24.096 4.864 32.864 13.696l49.344 49.504 82.208-82.528-32.896-33.024zM233.6 129.15200000000004v46.688h46.528v-46.688H233.6z m304.576 227.392l-92.256 91.584 32.704 33.184 92.224-91.552-32.672-33.216z m-233.952-255.488l173.632 239.84 37.632-27.456-177.184-244.192a115.2 115.2 0 0 0-82.208-34.208c-31.04 0-60.224 12.16-82.208 34.176-21.952 22.048-34.08 51.328-34.08 82.528s12.096 60.48 34.08 82.528l2.752 2.368 240.544 175.424 27.36-37.728-239.008-174.304a69.568 69.568 0 0 1-19.232-48.256c0-18.72 7.264-36.288 20.448-49.504 25.952-26.08 70.976-26.528 97.408-1.184z"  horiz-adv-x="1024" />
      
      <glyph glyph-name="website" unicode="&#59310;" d="M777.088 147.45600000000002c-30.464 21.376-40.832 40.192-76.48 53.792 25.28 60.288 40.192 83.616 42.112 154.88h145.184c-3.904-99.168-45.376-143.872-110.816-208.704zM136.096 356.12800000000004h167.2c1.952-71.296 16.864-94.624 42.112-154.88a438.784 438.784 0 0 1-98.496-53.792c-65.472 64.8-106.944 109.536-110.816 208.704z m103.04 259.904a393.44 393.44 0 0 1 96.576-57.696c-19.456-53.792-30.464-90.72-31.744-152.96H136.096c3.232 90.72 46.656 147.776 103.04 210.624z m309.152-209.984v117.952c47.296 1.28 71.296 10.368 114.08 25.28 18.144-51.2 28.512-84.896 30.464-143.232h-144.512z m104.352-195.104c-40.192 12.96-60.288 20.096-104.352 21.376v123.776h144.512c-1.952-68.064-16.192-88.128-40.192-145.184z m36.928-57.664c31.744-12.32 39.52-28.512 66.752-47.296a369.6 369.6 0 0 0-182.112-84.896c36.928 37.6 90.72 82.304 115.36 132.224z m-163.296-137.408l22.048 165.92c40.192-1.312 56.384-7.776 92.672-18.784a457.44 457.44 0 0 0-113.408-147.104h-1.312z m-75.84 5.184c-67.392 11.008-130.272 40.832-182.752 84.896a431.52 431.52 0 0 0 88.8 47.296 482.944 482.944 0 0 1 93.984-132.224z m47.296 335.072v-123.776c-44.064-1.312-64.16-8.416-104.352-21.376-23.968 57.696-38.24 77.12-40.192 145.184h144.512z m-114.048 193.152c42.784-14.912 66.752-23.328 114.08-25.28v-117.952h-144.512c1.952 58.336 12.32 92.032 30.464 143.232z m-37.6 57.024a366.4 366.4 0 0 0-88.128 51.84c53.792 51.84 115.36 91.392 192.48 104.352a479.136 479.136 0 0 1-104.352-156.192z m151.648 161.376v-193.792c-44.064 1.28-64.16 9.088-103.68 22.688 29.152 68.704 49.888 127.04 102.4 171.104h1.28z m75.84-4.544a398.88 398.88 0 0 0 206.752-104.352c-29.152-22.048-46.016-37.6-80.352-51.84-25.28 59.616-82.944 112.768-126.368 156.192z m-46.016 4.544a447.584 447.584 0 0 0 124.448-171.104c-39.52-13.6-59.616-21.376-103.712-22.688l-22.048 193.792h1.312z m-31.104-751.168c-46.656 38.88-62.88 88.8-91.392 147.104 36.288 11.68 53.152 17.504 93.312 18.784v-165.92h-1.952z m391.456 389.536H742.72c-1.312 61.568-12.32 98.496-31.744 152.32 37.6 15.552 57.024 33.056 88.8 57.696 56.384-62.88 84.896-119.904 88.128-209.984zM512 833.792c-244.32 0-442.016-197.664-442.016-442.016S267.648-50.24000000000001 512-50.24000000000001s442.016 197.664 442.016 442.016S756.352 833.792 512 833.792z"  horiz-adv-x="1024" />
      
      <glyph glyph-name="transfer" unicode="&#59025;" d="M320 768H128c-35.2 0-64-28.8-64-64v-640c0-35.2 28.8-64 64-64h192c35.2 0 64 28.8 64 64V704c0 35.2-28.8 64-64 64z m0-672c0-16-16-32-32-32H160c-16 0-32 16-32 32V672c0 16 16 32 32 32h128c16 0 32-16 32-32v-576z m256 544h-64c-19.2 0-32-12.8-32-32s16-32 32-32h64c19.2 0 32 12.8 32 32s-16 32-32 32z m-64-448h-64c-19.2 0-32-12.8-32-32s16-32 32-32h64c19.2 0 32 12.8 32 32s-16 32-32 32zM896 768h-192c-35.2 0-64-28.8-64-64v-640c0-35.2 28.8-64 64-64h192c35.2 0 64 28.8 64 64V704c0 35.2-28.8 64-64 64z m0-672c0-16-16-32-32-32h-128c-16 0-32 16-32 32V672c0 16 16 32 32 32h128c16 0 32-16 32-32v-576z"  horiz-adv-x="1024" />
      
      <glyph glyph-name="upload-drag" unicode="&#59009;" d="M666.944 445.92l-124.256 99.36a42.912 42.912 0 0 1-52.864 0l-124.224-99.392a42.048 42.048 0 0 1-6.496-59.04c13.824-17.344 41.504-20.48 58.912-6.496l56.256 45.024v-261.12c0-23.168 18.848-41.984 41.952-41.984s41.952 18.848 41.952 41.984v261.12l56.288-45.056c17.536-13.888 45.088-10.72 58.912 6.56a41.92 41.92 0 0 1-6.368 59.008zM235.84 142.94399999999996c-85.024 0-152.544 31.712-188.64 89.824-36.128 58.08-34.4 134.72 4.32 195.168 37.344 58.336 102.368 92.032 179.008 94.56-19.872 130.496 42.656 202.368 84.768 235.008 90.112 69.856 234.272 79.04 335.552 21.376 58.976-33.6 94.048-85.664 100.448-146.976 113.952 18.976 177.568-33.824 206.816-69.92 63.328-78.144 71.264-204.384 18.912-300.192-46.528-85.056-130.4-127.328-229.824-116.512-18.752 2.112-32.224 18.976-30.176 37.696s19.296 32.032 37.696 30.176c96.704-10.72 143.264 46.368 162.4 81.408 39.008 71.36 33.824 167.872-12.064 224.48-38.688 47.68-100.352 60.512-178.496 37.056a34.144 34.144 0 0 0-43.68 37.12c8.544 68.512-31.104 106.528-65.92 126.368-77.344 44.064-191.52 37.024-259.936-15.968-58.272-45.184-75.936-117.184-51.136-208.192a34.144 34.144 0 0 0-37.344-42.816c-70.752 8.832-128.992-13.536-159.68-61.408-24.608-38.432-26.144-86.464-3.808-122.368 27.712-44.576 86.048-64.384 164.16-55.648a34.144 34.144 0 0 0 7.712-67.84 351.68 351.68 0 0 0-41.12-2.4z"  horiz-adv-x="1024" />
      
      <glyph glyph-name="prev-circle" unicode="&#58931;" d="M508.64 827.968c-246.4 0-446.848-200.448-446.848-446.848s200.448-446.848 446.848-446.848c246.368 0 446.848 200.448 446.848 446.848S755.04 827.968 508.64 827.968z m0-851.136c-222.944 0-404.288 181.344-404.288 404.288S285.696 785.408 508.64 785.408c222.912 0 404.288-181.344 404.288-404.288s-181.344-404.288-404.288-404.288zM252.864 485.184c8.64 26.144-32.48 37.216-41.056 11.328-27.808-83.744-22.336-168.544 14.08-248.576 11.36-24.928 48.032-3.296 36.736 21.504-31.648 69.632-33.824 143.424-9.76 215.776z m346.4-237.44l-127.616 133.408 127.488 133.216a23.232 23.232 0 0 1-0.032 32.832 23.712 23.712 0 0 1-32.832 0l-148.32-148.32a23.04 23.04 0 0 1-6.56-17.76 23.04 23.04 0 0 1 6.56-17.792l148.32-148.288c4.384-4.384 10.208-6.784 16.416-6.784s12 2.4 16.416 6.784a23.2 23.2 0 0 1 0.16 32.672z"  horiz-adv-x="1024" />
      
      <glyph glyph-name="share" unicode="&#58945;" d="M769.728 306.46400000000006a158.016 158.016 0 0 1-126.56-63.264l-248.672 124.768a158.752 158.752 0 0 1-1.152 90.784l247.712 124.288a158.24 158.24 0 1 1-28.544 74.208l-261.28-131.072a158.24 158.24 0 1 1 3.072-226.528l258.688-129.792a158.24 158.24 0 1 1 156.768 136.64z"  horiz-adv-x="1024" />
      
      <glyph glyph-name="unlink" unicode="&#58957;" d="M150.336 767.6800000000001a32.032 32.032 0 0 1-12.032-54.016l122.624-122.432c9.28-15.04 28.992-19.712 44.032-10.496 15.04 9.344 19.712 28.992 10.496 44.096a32.672 32.672 0 0 1-10.496 10.432L182.336 757.696a31.904 31.904 0 0 1-28.032 9.984 20.544 20.544 0 0 1-3.968 0z m255.744 63.744c-13.696-4.48-22.72-17.6-22.016-32V672a31.904 31.904 0 1 1 63.872 0V799.424a31.904 31.904 0 0 1-37.888 32 20.544 20.544 0 0 1-3.968 0z m-314.688-319.552A32.352 32.352 0 0 1 101.376 448H224a31.904 31.904 0 1 1 0 63.872H101.376a31.488 31.488 0 0 1-6.016 0 20.544 20.544 0 0 1-3.968 0zM795.456 320c-17.728-2.752-29.824-14.08-27.072-31.744 2.752-17.6 19.328-35.008 36.992-32.256H928c17.664 0 32 19.584 32 37.248S945.664 320 928 320h-122.624a31.488 31.488 0 0 1-6.016 0 21.216 21.216 0 0 1-4.032 0h0.128z m-197.184-192.576c-13.76-4.48-22.72-17.6-22.08-32V-32c0-17.664 14.336-32 32-32s31.808 14.336 31.808 32v127.424a31.904 31.904 0 0 1-37.824 32 21.216 21.216 0 0 1-4.032 0h0.128z m128 64.256a32 32 0 0 1-12.032-54.016l122.56-122.432a32 32 0 1 1 44.032 43.968l-122.56 122.432a31.84 31.84 0 0 1-28.032 9.984 21.216 21.216 0 0 1-4.032 0h0.064z m-386.304-163.648a191.36 191.36 0 0 0-135.744 56.128 192.256 192.256 0 0 0 0 271.488l87.744 87.744a32 32 0 0 0 45.248-45.248l-87.808-87.68a128.096 128.096 0 0 1 0-180.992 128.192 128.192 0 0 1 180.992 0l87.744 87.744a32 32 0 0 0 45.248-45.248l-87.744-87.744a190.88 190.88 0 0 0-135.68-56.192z m362.176 295.68a32 32 0 0 0-22.656 54.592l87.744 87.744a128.192 128.192 0 0 1 0 180.992 128.192 128.192 0 0 1-180.992 0l-87.744-87.744a32 32 0 0 0-45.248 45.248l87.744 87.744a192.128 192.128 0 0 0 271.488 0 192.128 192.128 0 0 0 0-271.488l-87.744-87.744a31.616 31.616 0 0 0-22.592-9.344z"  horiz-adv-x="1024" />
      
      <glyph glyph-name="service" unicode="&#58918;" d="M849.024 487.712a27.904 27.904 0 0 1 0 9.184l0.032-0.16c0 186.272-151.008 337.28-337.28 337.28s-337.28-151.008-337.28-337.28a27.904 27.904 0 0 1 0-9.184l-0.032 0.16c-64.192-16-111.2-72.608-112.416-140.416v-19.232a148.512 148.512 0 0 1 122.784-143.232l0.896-0.128c38.048-99.072 122.944-172.416 226.816-193.6l1.984-0.352h5.056a84.512 84.512 0 0 1 79.488-56.224 84.32 84.32 0 1 1-79.328 113.024l-0.192-0.576a253.632 253.632 0 0 0-171.36 135.68l-0.672 1.504h32.256c18.176 0 33.152 13.696 35.168 31.328v243.008A35.424 35.424 0 0 1 279.552 492.8H230.624l0.064 1.984-0.064 2.048v-0.096a281.088 281.088 0 0 0 562.176 0l-0.064-1.696 0.064-1.76v0.064h-48.928c-19.168 0-34.784-15.232-35.392-34.24v-243.488a35.424 35.424 0 0 1 35.392-34.304h64.096l3.424-0.032a150.08 150.08 0 0 1 150.048 146.592v19.264a147.392 147.392 0 0 1-111.424 140.32l-1.024 0.224zM498.24 46.976a28.096 28.096 0 1 0-28.096-28.096c0 15.52 12.576 28.096 28.096 28.096z m-239.488 193.408H215.456a93.888 93.888 0 0 0-97.248 87.424v19.392a93.952 93.952 0 0 0 97.408 89.952h-0.16 43.296z m646.464 87.68a93.952 93.952 0 0 0-97.408-89.952h0.16-43.296V437.12h43.296l3.456 0.064a93.888 93.888 0 0 0 93.792-89.824v-0.192zM633.696 705.8240000000001l-20.8 7.296a29.44 29.44 0 0 1-17.632-56.192l0.192-0.064 16.288-6.176a28.096 28.096 0 0 1 22.112 51.616l-0.192 0.064z m-303.552-66.336a28.096 28.096 0 0 1 46.624-30.368l0.032 0.032a177.536 177.536 0 0 0 134.688 67.456h0.224a28.096 28.096 0 1 1 0 56.192 231.456 231.456 0 0 1-181.152-92.704l-0.416-0.608z"  horiz-adv-x="1024" />
      
      <glyph glyph-name="template" unicode="&#58979;" d="M734.016 172.89599999999996V255.67999999999995h-59.904v-36.992l-35.712-9.696 15.712-57.792z m-59.904 246.4h59.904v-81.792h-59.904z m59.904 180.896l-95.616-26.016 15.712-57.792 20 5.408v-20.704h59.904z m132.096-468.896v-36.992l-35.712-9.696 7.904-28.896 7.808-28.896 79.904 21.696v82.784h-29.888z m-125.216-71.008l-89.504-24.288 7.904-28.896 7.808-28.992 89.504 24.384-7.808 28.896z m0 721.408l-89.504-24.288 7.904-28.896 7.808-28.896 89.504 24.288-7.808 28.896z m89.504 24.288l7.904-28.896 7.808-28.896 20 5.504v-20.8h59.904V832z m35.712-193.376v-120.288h59.904V612.608h-29.888z m0-240.704v-120.288h59.904v120.288h-29.888zM541.888 665.6l35.712 9.696-15.616 57.792-50.016-13.6L97.952 832v-783.488L511.968-64l65.6 17.792-15.616 57.792-20-5.408v114.592l35.712 9.696-15.712 57.792-20-5.408v303.104l35.712 9.696-15.712 57.792-20-5.408V665.5360000000001z m-59.776-659.392L157.92 94.30399999999997V753.696L482.112 665.6v-117.6l-192 52.192v-427.296l192-52.192v-114.496z m0 360.896v-184.288l-132.192 35.904v303.104l132.192-35.904v-118.784z"  horiz-adv-x="1024" />
      
      <glyph glyph-name="vercode" unicode="&#59001;" d="M513.792-128c-162.624 0-455.392 254.208-459.584 504.16V662.2719999999999A93.44 93.44 0 0 0 135.04 750.752l0.48 0.064a569.248 569.248 0 0 1 167.008 41.76l-3.744-1.408A394.08 394.08 0 0 1 447.424 872.864l-0.448-0.384A101.216 101.216 0 0 0 510.912 895.04c21.088 0 40.672-6.4 56.896-17.376l-0.352 0.224a623.968 623.968 0 0 1 145.184-84l4.192-1.536c46.752-14.816 104.064-28.256 162.72-37.6l7.168-0.928a99.008 99.008 0 0 0 79.488-90.656v-0.288a2948.8 2948.8 0 0 0-3.424-299.872l0.416 8.352C924.64 49.087999999999965 672.864-128 513.856-128z m0 963.776l-1.184 0.032a39.04 39.04 0 0 1-23.616-7.904l0.096 0.064a437.184 437.184 0 0 0-166.752-92.576l-3.104-0.768c-52.928-22.336-114.272-37.76-178.464-43.232l-2.24-0.16a33.856 33.856 0 0 1-24.096-30.016v-283.808c4.224-222.272 275.264-445.152 399.36-445.152s354.176 148.192 391.52 444.544c9.024 175.872 0 281.888 0 283.104a38.592 38.592 0 0 1-29.248 33.664l-0.256 0.064a1279.424 1279.424 0 0 0-189.824 44.032l9.12-2.464a677.856 677.856 0 0 0-160.352 95.584l1.312-1.024a37.056 37.056 0 0 1-24.224 5.984H512z m271.072-356.608l-296.96-280.704a40.192 40.192 0 0 0-49.536-4.736l0.16-0.096-7.84 6.624-161.44 171.072a40.96 40.96 0 0 0 60.192 55.456l0.032-0.032 133.728-141.568 267.456 252.992a40.96 40.96 0 0 0 55.456-60.192l-0.032-0.032"  horiz-adv-x="1024" />
      
      <glyph glyph-name="video" unicode="&#59117;" d="M952.512 599.232zM100.544 661.056z m0.192 59.36z m560.256 19.52c8.704 0 17.504-0.512 25.696-2.368 12.288-2.88 23.232-8.192 34.368-16.672 15.136-11.456 26.208-29.568 32.032-52.192 3.488-13.408 2.976-28.64 2.56-42.048-0.096-4.192-0.192-8.096-0.192-11.68v-37.76l126.88 88c0.512 0.32 1.344 1.024 2.144 1.632 4.384 3.392 11.04 8.608 20.992 11.04 3.264 0.832 6.56 1.216 10.016 1.216 9.632 0 19.456-3.264 27.744-9.312 18.816-13.92 18.72-35.392 18.72-51.072v-412.8c0-15.968 0.096-37.952-19.648-51.968a48.32 48.32 0 0 0-27.232-8.384c-5.024 0-10.144 0.832-15.136 2.752-7.168 2.752-12.288 6.848-16.064 9.824a99.168 99.168 0 0 0-2.368 1.856l-24.96 17.408-101.088 70.08v-37.952c0-3.584 0.096-7.36 0.192-11.456 0.416-14.72 0.832-29.984-2.88-43.808-5.632-21.504-16.672-39.392-31.104-50.432a88.8 88.8 0 0 0-34.08-16.992 106.368 106.368 0 0 0-24.448-2.368c-4.288 0-8.608 0.096-12.704 0.192-3.68 0.096-7.168 0.192-10.24 0.192H155.392c-16.576 0-33.472 0.608-47.776 6.56-27.936 11.552-46.752 37.76-52.992 73.568l-0.416 2.24V169.60000000000002l-0.32 56.8V597.952c0 4.384-0.096 8.896-0.096 13.696-0.32 27.008-0.704 54.944 9.312 76.64 9.824 21.28 27.52 38.08 48.704 45.952 5.728 2.144 11.04 2.752 15.04 3.168 1.024 0.096 2.368 0.32 3.072 0.416l4.096 1.536h500.992c3.584 0 7.584 0.096 11.776 0.32 4.384 0 9.312 0.192 14.24 0.192M304.288 266.784l255.616 127.488v33.984l-255.616 127.712v-289.184M660.992 780.864c-5.632 0-10.944-0.192-15.744-0.32-3.904-0.096-7.456-0.192-10.432-0.192H126.56l-6.432-2.368a97.408 97.408 0 0 1-22.72-5.216A129.856 129.856 0 0 1 25.792 705.5360000000001C11.968 675.456 12.384 641.376 12.8 611.296c0.096-4.608 0.096-8.992 0.096-13.184v-372.064l0.32-56.8v-5.728l1.024-5.632c4.192-23.936 12.8-45.12 25.472-62.72a120.576 120.576 0 0 1 52.096-41.536c21.504-8.896 44-9.632 63.456-9.632h484.928c2.56 0 5.632-0.096 8.992-0.192 4.192-0.096 8.896-0.32 13.92-0.32 13.312 0 24.16 1.12 33.984 3.488a129.824 129.824 0 0 1 49.312 24.256c21.696 16.576 37.952 42.368 45.856 72.64 2.24 8.608 3.392 17.088 4 25.376l61.408-42.656c0.32-0.192 0.608-0.512 0.928-0.704 4.8-3.68 13.6-10.656 26.4-15.648 9.504-3.68 19.648-5.632 30.08-5.632 18.016 0 36.544 5.824 50.848 15.968a83.52 83.52 0 0 1 33.056 48.096c3.776 14.432 3.776 27.616 3.776 37.344V615.52v3.072c0 9.408 0.096 22.4-3.488 36.544a84.128 84.128 0 0 1-31.712 47.68 88.48 88.48 0 0 1-52.096 17.28c-6.752 0-13.504-0.832-19.968-2.464a94.496 94.496 0 0 1-36.032-18.432 3.264 3.264 0 0 0-0.704-0.512l-25.184-17.28h-0.192l-37.152-25.792a126.24 126.24 0 0 1-3.68 23.424c-8.192 31.712-24.352 57.504-46.88 74.592a129.024 129.024 0 0 1-49.824 23.936 163.072 163.072 0 0 1-34.784 3.264z m-315.776-447.872v156.768l157.088-78.496-157.088-78.272z m2.24 96.192z"  horiz-adv-x="1024" />
      
      <glyph glyph-name="top" unicode="&#58884;" d="M812 153.40800000000002L512 326.20799999999997l-300-172.8L512 757.408l300-604zM264.512 209.216L512 351.712l247.488-142.496L512 707.52 264.512 209.216z m107.2-70.912v-126.208h-15.904v126.208H309.92v14.688h107.392v-14.784h-45.6z m134.88 16.192c26.592 0 43.296-3.904 50.016-11.712s10.016-27.2 10.016-58.304c0-33.504-3.2-54.208-9.6-62.016s-23.2-11.808-50.4-11.808c-27.008 0-43.808 3.904-50.304 11.712s-9.792 27.904-9.792 60.288v9.888l0.192 13.312c0 18.688 4.192 31.488 12.608 38.4 8.512 6.688 24.192 10.208 47.296 10.208z m-0.096-13.504c-22.304 0-35.296-2.496-39.104-7.392-3.808-4.992-5.696-22.016-5.696-51.008 0-29.088 1.888-46.112 5.696-51.104s16.8-7.392 39.104-7.392c22.4 0 35.392 2.496 39.2 7.392 3.808 4.992 5.696 22.016 5.696 51.104v9.216l-0.096 13.312c0 15.616-2.592 25.408-7.808 29.6s-17.6 6.304-36.992 6.304z m101.888-128.896v140.896h64.608c15.904 0 26.688-3.104 32.512-9.216s8.704-17.6 8.704-34.4c0-16.096-3.008-27.104-8.992-32.896-6.016-5.888-17.312-8.8-33.888-8.8l-6.208-0.096h-40.704v-55.488h-16z m15.904 68.992h37.696c15.808 0 25.888 1.6 30.304 4.896 4.384 3.2 6.688 10.688 6.688 22.304 0 13.6-1.504 22.208-4.512 25.888-3.008 3.616-10.112 5.408-21.312 5.408l-6.112 0.096h-42.688v-58.592z"  horiz-adv-x="1024" />
      
      <glyph glyph-name="triangle-d" unicode="&#58917;" d="M889.696 575.2H158.848l365.504-365.536 365.344 365.536z"  horiz-adv-x="1024" />
      
      <glyph glyph-name="set-fill" unicode="&#58900;" d="M916.928 445.216l-69.952 10.784c-18.656 2.848-38.144 17.824-43.328 33.248-5.152 15.392-15.072 65.44-3.936 80.672L841.6 627.04c11.168 15.232 9.376 38.592-3.968 51.936l-30.624 30.656c-13.344 13.344-36.704 15.136-51.936 3.936L697.952 671.6800000000001c-15.232-11.168-39.424-14.4-53.76-7.168s-57.312 35.776-60.16 54.432l-10.784 69.952c-2.848 18.688-20.672 33.952-39.552 33.952h-43.328c-18.88 0-36.672-15.264-39.552-33.92l-10.784-69.952c-2.848-18.656-17.824-38.144-33.248-43.328s-65.44-15.104-80.672-3.936L268.992 713.6c-15.232 11.168-38.624 9.376-51.936-3.936l-30.624-30.656c-13.376-13.344-15.136-36.704-3.968-51.936l41.888-57.12c11.168-15.232 14.368-39.424 7.168-53.76s-35.776-57.28-54.432-60.16l-69.952-10.784c-18.688-2.848-33.952-20.672-33.952-39.552v-43.328c0-18.88 15.264-36.672 33.92-39.552l69.952-10.784c18.656-2.848 38.144-17.856 43.328-33.248 5.152-15.392 15.072-65.472 3.936-80.672l-41.888-57.12c-11.168-15.232-9.376-38.624 3.968-51.936l30.624-30.656c13.344-13.344 36.704-15.136 51.936-3.968l57.12 41.92c15.232 11.136 39.424 14.368 53.76 7.168s57.28-35.776 60.16-54.432l10.784-69.952c2.848-18.656 20.64-33.92 39.552-33.92h43.328c18.88 0 36.672 15.264 39.552 33.92l10.784 69.952c2.848 18.656 17.824 38.144 33.248 43.328s65.44 15.072 80.672 3.936l57.152-41.92c15.232-11.168 38.592-9.376 51.936 3.968l30.624 30.656c13.376 13.344 15.136 36.704 3.968 51.936l-41.888 57.12c-11.168 15.232-14.368 39.424-7.168 53.76 7.232 14.368 35.776 57.312 54.432 60.192l69.952 10.784c18.656 2.848 33.92 20.64 33.92 39.552v43.328c0.032 18.88-15.232 36.672-33.888 39.552zM512 210.46400000000006a173.536 173.536 0 1 0 0 347.072 173.536 173.536 0 0 0 0-347.072zM407.232 384a104.768 104.768 0 0 1 209.536 0 104.768 104.768 0 0 1-209.536 0z"  horiz-adv-x="1024" />
      
      <glyph glyph-name="triangle-r" unicode="&#58915;" d="M293.28 728.256l426.88-355.456-426.88-355.52z"  horiz-adv-x="1024" />
      
      <glyph glyph-name="set" unicode="&#59158;" d="M466.496-126.62400000000002l-1.056 0.064c-25.184 2.08-47.456 22.368-51.744 47.232l-17.344 102.4c-0.672 4.064-6.624 11.04-10.56 12.416l-30.336 12.416c-5.44 2.496-15.424 0.8-17.472-0.64l-84.992-60.16c-19.584-14.016-51.456-12.736-70.08 3.168l-64.288 64c-17.952 20.48-19.488 50.592-4.736 71.296l60.416 84.672c2.176 3.072 2.784 11.52 1.024 15.04 0 0-1.664 3.104-7.264 16.608-6.176 14.848-6.816 17.44-6.816 17.44-0.992 3.04-7.456 8.672-11.36 9.376l-102.56 17.248c-25.152 4.288-45.44 26.624-47.168 52L0 428.288c2.112 27.36 22.496 49.6 47.52 53.728l102.528 17.344c4.128 0.672 11.008 6.56 12.416 10.496l12.608 30.336c2.368 4.992 1.6 14.112-0.8 17.504L113.984 642.24a58.528 58.528 0 0 0 3.072 69.952l64.416 64.224c20.672 18.208 51.296 18.784 71.36 4.64l84.992-60.16c1.952-1.376 13.28-2.016 15.04-1.056 0.384 0.192 2.528 1.344 16.704 7.168a257.6 257.6 0 0 0 16.576 6.592c3.84 1.184 9.504 7.648 10.144 11.424l17.44 102.4A58.144 58.144 0 0 0 465.856 894.528l90.528 0.064c27.328-2.112 49.632-22.368 53.952-47.232l17.344-102.432c0.672-4.064 6.656-11.04 10.624-12.48l30.304-12.352c6.24-2.784 15.456-0.8 17.44 0.608l85.024 60.16c19.52 14.016 51.392 12.704 70.08-3.136l64.288-64.032c17.952-20.48 19.456-50.56 4.736-71.264l-60.416-84.672c-2.208-3.136-2.848-11.616-1.056-15.04 0.16-0.352 1.376-2.56 7.232-16.672s6.592-16.512 6.592-16.512c1.248-4.032 7.712-9.6 11.648-10.304l102.56-17.248a57.92 57.92 0 0 0 47.168-52L1024 339.67999999999995c-2.112-27.392-22.528-49.6-47.552-53.728l-102.528-17.376c-4.128-0.672-10.944-6.496-12.32-10.432l-12.736-30.432c-2.336-4.928-1.568-14.112 0.832-17.472l60.288-84.512a58.528 58.528 0 0 0-3.232-70.048l-64.192-64.096c-11.328-9.92-24.64-14.72-38.784-14.72-11.904 0-23.52 3.552-32.704 10.016l-84.992 60.16c-1.952 1.408-13.312 2.016-15.072 1.056a249.216 249.216 0 0 0-16.608-7.2c-14.08-5.792-16.384-6.496-16.384-6.496-4.16-1.28-9.792-7.776-10.432-11.52l-17.408-102.4a58.176 58.176 0 0 0-52.032-47.104h-91.648z m-118.656 227.232c10.368 0 20.192-2.112 28.48-6.112l27.648-11.296c20.416-7.072 38.976-28.992 42.848-51.584l17.344-102.336c0.288-1.6 3.136-4.32 5.056-4.832l87.296 0.064c-0.032 0.064 3.04 2.944 3.328 4.672l17.408 102.368c3.872 22.656 23.328 44.832 45.28 51.584-0.096 0 2.976 1.152 12.448 5.056 9.472 3.936 12.384 5.248 13.12 5.568 18.208 9.6 49.44 8.032 67.776-4.96l84.928-60.16c0.192-0.128 1.312-0.64 3.104-0.64 2.048 0 3.52 0.672 3.872 0.96l61.536 61.408c-0.16 0 0.064 4.416-0.992 5.952l-60.224 84.448c-13.248 18.624-15.68 47.168-5.792 67.872l11.648 27.84c6.944 19.968 29.408 38.912 51.68 42.496l102.464 17.376c1.824 0.384 4.736 3.648 4.864 5.408l-0.16 86.528c-0.096 0-2.88 3.072-4.576 3.424l-102.72 17.28c-23.168 4.032-44.896 22.976-51.776 45.056l-5.12 12.512a407.52 407.52 0 0 1-5.632 13.248c-10.24 19.36-8.288 48.736 4.96 67.456L868.448 672c0.96 1.408 0.736 5.6-0.384 6.912l-61.408 61.184c0.704-0.8-0.768-0.192-2.848-0.192a6.304 6.304 0 0 1-3.008-0.576l-85.024-60.16c-17.824-12.8-47.776-15.36-68-5.664l-27.712 11.296c-20.512 7.2-39.04 29.088-42.88 51.584l-17.344 102.336c-0.288 1.76-3.616 4.704-5.504 4.864l-86.72-0.064c0-0.064-3.104-2.944-3.392-4.672l-17.408-102.336c-3.84-22.624-23.264-44.8-45.216-51.584 0-0.032-3.008-1.184-12.416-5.088-9.568-3.936-12.512-5.248-13.248-5.568-17.984-9.568-49.344-8.032-67.744 4.992L223.264 739.36a19.136 19.136 0 0 1-6.848-0.224L154.688 677.6320000000001c0.224 0 0.032-4.384 1.056-5.856L216 587.264c13.312-18.752 15.744-47.296 5.76-67.968l-11.52-27.648c-6.976-20.032-29.472-38.944-51.776-42.624l-102.496-17.344c-1.824-0.384-4.704-3.648-4.832-5.408l0.096-86.56c0.096 0 2.912-3.104 4.608-3.424l102.656-17.28c23.04-4 44.704-22.912 51.712-44.928 0.256-0.736 1.44-3.84 5.088-12.64 3.68-8.832 5.024-11.84 5.472-12.736 10.592-20.288 8.672-48.96-4.672-67.904l-60.512-84.768c-0.96-1.408-0.736-5.632 0.384-6.912l61.408-61.184c-0.736 0.8 0.736 0.224 2.816 0.192a6.304 6.304 0 0 1 3.008 0.576l84.992 60.16c10.432 7.456 24.896 11.744 39.648 11.744z m164.192 33.248c-138.336 0-250.848 112.224-250.848 250.176s112.544 250.144 250.848 250.144 250.848-112.224 250.848-250.144c0-137.952-112.544-250.176-250.848-250.176z m0 449.28c-110.08 0-199.648-89.312-199.648-199.104s89.568-199.136 199.648-199.136 199.648 89.344 199.648 199.136-89.568 199.104-199.648 199.104z"  horiz-adv-x="1024" />
      
      </font>
</defs>
</svg>
